<svg height="16" width="16" xmlns="http://www.w3.org/2000/svg" xmlns:xlink="http://www.w3.org/1999/xlink"><linearGradient id="a" x1="0%" x2="100%" y1="0%" y2="100%"><stop offset="0" stop-color="#85acdd"/><stop offset="1" stop-color="#5171a9"/></linearGradient><linearGradient id="b" x1="100%" x2="0%" y1="0%" y2="100%"><stop offset="0" stop-color="#dee7f2"/><stop offset="1" stop-color="#fff"/></linearGradient><linearGradient id="c" x1="0%" x2="100%" y1="0%" y2="100%"><stop offset="0" stop-color="#6fa53d"/><stop offset="1" stop-color="#1e7b03"/></linearGradient><linearGradient id="d" x1="0%" x2="100%" y1="0%" y2="100%"><stop offset="0" stop-color="#b0ce96"/><stop offset="1" stop-color="#96c180"/></linearGradient><g transform="translate(8 8)"><path d="m0-7h5a2 2 0 0 1 2 2v10a1 1 0 0 1 -1 1h-13a1 1 0 0 1 -1-1v-10a2 2 0 0 1 2-2z" fill="url(#a)"/><path d="m-7-4h13v9h-13z" fill="#fff"/><path d="m-6-3h11v7h-11z" fill="url(#b)"/><path d="m0-6h5a1 1 0 0 1 1 1h-13a1 1 0 0 1 1-1h4z" fill="#92b9e8"/><g transform="translate(3 3)"><path d="m-1-2v-2h1l4.5 4.5-4.5 4.5h-1v-2h-4v-5z" fill="url(#c)"/><path d="m0-1v-1.5l3 3-3 3v-1.5h-4v-3z" fill="url(#d)"/><path d="m.5 0v-.5l1 1-1 1v-.5h-3.5v-1z" fill="#8eba6f"/></g></g></svg>