<svg height="16" width="16" xmlns="http://www.w3.org/2000/svg" xmlns:xlink="http://www.w3.org/1999/xlink"><linearGradient id="a" x1="0%" x2="100%" y1="0%" y2="100%"><stop offset="0" stop-color="#85acdd"/><stop offset="1" stop-color="#5171a9"/></linearGradient><linearGradient id="b" x1="100%" x2="0%" y1="0%" y2="100%"><stop offset="0" stop-color="#dee7f2"/><stop offset="1" stop-color="#fff"/></linearGradient><linearGradient id="c" x1="0%" x2="100%" y1="0%" y2="0%"><stop offset="0" stop-color="#858585"/><stop offset="1" stop-color="#4a4a4a"/></linearGradient><linearGradient id="d" x1="0%" x2="100%" y1="0%" y2="0%"><stop offset="0" stop-color="#ddd"/><stop offset="1" stop-color="#aeaeae"/></linearGradient><radialGradient id="e" cx="50%" cy="0%" r="70%"><stop offset="0" stop-color="#929292"/><stop offset="1" stop-color="#414141"/></radialGradient><radialGradient id="f" cx="50%" cy="50%" r="70%"><stop offset="0" stop-color="#cecece"/><stop offset="1" stop-color="#bdbdbd"/></radialGradient><g transform="translate(8 8)"><path d="m0-7h5a2 2 0 0 1 2 2v10a1 1 0 0 1 -1 1h-13a1 1 0 0 1 -1-1v-10a2 2 0 0 1 2-2z" fill="url(#a)"/><path d="m-7-4h13v9h-13z" fill="#fff"/><path d="m-6-3h11v7h-11z" fill="url(#b)"/><path d="m0-6h5a1 1 0 0 1 1 1h-13a1 1 0 0 1 1-1h4z" fill="#92b9e8"/><g transform="translate(1.5 4)"><g id="g"><path d="m-1.5-3h-1.5a3.5 3.5 0 0 0 0 7h1.5a1.5 1.5 0 0 0 0-3h-2a.5.5 0 0 1 0-1h2a1.5 1.5 0 0 0 0-3z" fill="url(#c)"/><path d="m-1.5-2h-1.5a2.5 2.5 0 0 0 0 5h1.5a.5.5 0 0 0 0-1h-1.5a1.5 1.5 0 0 1 0-3h1.5a.5.5 0 0 0 0-1z" fill="url(#d)"/></g><use transform="matrix(-1 0 0 -1 0 1)" xlink:href="#g"/><path d="m-3.25-1h6v3h-6z" fill="url(#e)"/><path d="m-2.25 0h4v1h-4z" fill="url(#f)"/></g></g></svg>