<svg height="16" width="16" xmlns="http://www.w3.org/2000/svg" xmlns:xlink="http://www.w3.org/1999/xlink"><linearGradient id="a" x1="0%" x2="100%" y1="0%" y2="100%"><stop offset="0" stop-color="#85acdd"/><stop offset="1" stop-color="#5171a9"/></linearGradient><linearGradient id="b" x1="100%" x2="0%" y1="0%" y2="100%"><stop offset="0" stop-color="#dee7f2"/><stop offset="1" stop-color="#fff"/></linearGradient><linearGradient id="c" x1="0%" x2="100%" y1="0%" y2="100%"><stop offset="0" stop-color="#7bc6ff"/><stop offset="1" stop-color="#2b8eff"/></linearGradient><linearGradient id="d" x1="0%" x2="100%" y1="0%" y2="100%"><stop offset="0" stop-color="#bbb"/><stop offset="1" stop-color="#888"/></linearGradient><g transform="translate(8 8)"><path d="m0-7h5a2 2 0 0 1 2 2v10a1 1 0 0 1 -1 1h-13a1 1 0 0 1 -1-1v-10a2 2 0 0 1 2-2z" fill="url(#a)"/><path d="m-1-4h7v9h-7z" fill="#fff"/><path d="m0-3h5v7h-5z" fill="url(#b)"/><path d="m-7-4h5v9h-5z" fill="#fff"/><path d="m0-6h5a1 1 0 0 1 1 1h-13a1 1 0 0 1 1-1h4z" fill="#92b9e8"/><path d="m-5-3h2v1h-2m0 1h2v1h-2m0 1h2v1h-2m0 1h2v1h-2z" fill="url(#d)"/><path d="m-6-3h1v1h-1m0 1h1v1h-1m0 1h1v1h-1m0 1h1v1h-1z" fill="url(#c)"/></g></svg>