<svg height="16" width="16" xmlns="http://www.w3.org/2000/svg" xmlns:xlink="http://www.w3.org/1999/xlink"><linearGradient id="a" x1="0%" x2="100%" y1="0%" y2="100%"><stop offset="0" stop-color="#72c466"/><stop offset="1" stop-color="#22601e"/></linearGradient><linearGradient id="b" x1="0%" x2="100%" y1="0%" y2="100%"><stop offset="0" stop-color="#a7d69e"/><stop offset="1" stop-color="#78bd72"/></linearGradient><g transform="translate(8 8)"><path d="m-6-1a4 4 0 0 1 4-4h2v-2l3.5 3.5-3.5 3.5v-2h-2a1 1 0 0 0 -1 1h-4m7 2h4a4 4 0 0 1 -4 4h-2v2l-3.5-3.5 3.5-3.5v2h2a1 1 0 0 0 1-1z" fill="url(#a)"/><path d="m-5-2a3 3 0 0 1 3-2h2.5v-1.5l2 2-2 2v-1.5h-2.5a1.5 1.5 0 0 0 -1.5 1h-2m6.5 4h2a3 3 0 0 1 -3 2h-2.5v1.5l-2-2 2-2v1.5h2.5a1.5 1.5 0 0 0 1.5-1h2z" fill="url(#b)"/></g></svg>