<svg height="16" width="16" xmlns="http://www.w3.org/2000/svg" xmlns:xlink="http://www.w3.org/1999/xlink"><linearGradient id="a" x1="0%" x2="100%" y1="0%" y2="100%"><stop offset="0" stop-color="#eba39e"/><stop offset="1" stop-color="#d12e25"/></linearGradient><linearGradient id="b" x1="0%" x2="100%" y1="0%" y2="100%"><stop offset="0" stop-color="#fcd4c4"/><stop offset="1" stop-color="#f49486"/></linearGradient><linearGradient id="c" x1="0%" x2="100%" y1="0%" y2="100%"><stop offset="0" stop-color="#ffaf8b"/><stop offset="1" stop-color="#fa4225"/></linearGradient><g transform="translate(8 8)"><path d="m-2.89949-7h5.79898l4.10051 4.10051v5.79898l-4.10051 4.10051h-5.79898l-4.10051-4.10051v-5.79898l4.10051-4.10051h5.79898z" fill="url(#a)"/><path d="m-2.48528-6h4.97056l3.51472 3.51472v4.97056l-3.51472 3.51472h-4.97056l-3.51472-3.51472v-4.97056l3.51472-3.51472h4.97056z" fill="url(#b)"/><path d="m-2.07107-5h4.14214l2.92893 2.92893v4.14214l-2.92893 2.92893h-4.14214l-2.92893-2.92893v-4.14214l2.92893-2.92893h4.14214z" fill="url(#c)"/><path d="m1-1h3v2h-3v3h-2v-3h-3v-2h3v-3h2z" fill="#fff" transform="matrix(.70710678 .70710678 -.70710678 .70710678 0 0)"/></g></svg>