<svg height="16" width="16" xmlns="http://www.w3.org/2000/svg" xmlns:xlink="http://www.w3.org/1999/xlink"><linearGradient id="a" x1="0%" x2="100%" y1="0%" y2="100%"><stop offset="0" stop-color="#3476c6"/><stop offset=".5" stop-color="#2b69b4"/><stop offset="1" stop-color="#2863ab"/></linearGradient><mask id="b"><path d="m-8-8h16v16h-16z" fill="#fff"/><path d="m-5-6c5 12 4 3 12 3" fill="none" stroke="#000" stroke-width="1.2"/><path d="m-8-8h8v16h-8z" fill="#fff"/></mask><linearGradient id="c" x1="0%" x2="0%" y1="0%" y2="100%"><stop offset="0" stop-color="#ef5759"/><stop offset=".5" stop-color="#f63639"/><stop offset="1" stop-color="#f90004"/></linearGradient><linearGradient id="d" x1="0%" x2="0%" y1="0%" y2="100%"><stop offset="0" stop-color="#4f92dd"/><stop offset="1" stop-color="#0257e0"/></linearGradient><linearGradient id="e" x1="0%" x2="0%" y1="0%" y2="100%"><stop offset="0" stop-color="#4ba43c"/><stop offset="1" stop-color="#37752d"/></linearGradient><g transform="translate(8 8)"><path d="m-7-7h1v13h13v1h-14z" fill="url(#a)"/><g fill="none" stroke-width="1.2"><path d="m-5 5c5 0 6-8 12 0" stroke="url(#e)"/><path d="m-5-6c5 12 4 3 12 3" stroke="url(#d)"/><path d="m-5 2.5c4-9 9-9 12-.5" mask="url(#b)" stroke="url(#c)"/></g></g></svg>