<svg height="16" width="16" xmlns="http://www.w3.org/2000/svg" xmlns:xlink="http://www.w3.org/1999/xlink"><linearGradient id="a" x1="0%" x2="100%" y1="0%" y2="100%"><stop offset="0" stop-color="#ccc"/><stop offset="1" stop-color="#444"/></linearGradient><radialGradient id="b" cx="55%" cy="55%" r="50%"><stop offset="0" stop-color="#aaa"/><stop offset="1" stop-color="#eee"/></radialGradient><g transform="translate(8 8)"><path d="m2 0a2 2 0 0 0 -4 0 2 2 0 0 0 4 0m3-2h3v4h-3l2.12132 2.12132-2.82843 2.82843-2.12132-2.12132v3h-4v-3l-2.12132 2.12132-2.82843-2.82843 2.12132-2.12132h-3v-4h3l-2.12132-2.12132 2.82843-2.82843 2.12132 2.12132v-3h4v3l2.12132-2.12132 2.82843 2.82843z" fill="url(#a)"/><path d="m2.5 0a2.5 2.5 0 0 0 -5 0 2.5 2.5 0 0 0 5 0m2.5-1h2v2h-2l-.727099 1.75537 1.41421 1.41421-1.41421 1.41421-1.41421-1.41421-1.75537.727099v2h-2v-2l-1.75537-.727099-1.41421 1.41421-1.41421-1.41421 1.41421-1.41421-.727099-1.75537h-2v-2h2l.727099-1.75537-1.41421-1.41421 1.41421-1.41421 1.41421 1.41421 1.75537-.727099v-2h2v2l1.75537.727099 1.41421-1.41421 1.41421 1.41421-1.41421 1.41421z" fill="url(#b)"/></g></svg>