<svg height="16" width="16" xmlns="http://www.w3.org/2000/svg" xmlns:xlink="http://www.w3.org/1999/xlink"><linearGradient id="a" x1="0%" x2="100%" y1="0%" y2="100%"><stop offset="0" stop-color="#ccc"/><stop offset="1" stop-color="#444"/></linearGradient><radialGradient id="b" cx="55%" cy="55%" r="50%"><stop offset="0" stop-color="#aaa"/><stop offset="1" stop-color="#eee"/></radialGradient><linearGradient id="c" x1="0%" x2="100%" y1="0%" y2="100%"><stop offset="0" stop-color="#6fa53d"/><stop offset="1" stop-color="#1e7b03"/></linearGradient><linearGradient id="d" x1="0%" x2="100%" y1="0%" y2="100%"><stop offset="0" stop-color="#b0ce96"/><stop offset="1" stop-color="#96c180"/></linearGradient><g transform="translate(8 8)"><path d="m2 0a2 2 0 0 0 -4 0 2 2 0 0 0 4 0m3-2h3v4h-3l2.12132 2.12132-2.82843 2.82843-2.12132-2.12132v3h-4v-3l-2.12132 2.12132-2.82843-2.82843 2.12132-2.12132h-3v-4h3l-2.12132-2.12132 2.82843-2.82843 2.12132 2.12132v-3h4v3l2.12132-2.12132 2.82843 2.82843z" fill="url(#a)"/><path d="m2.5 0a2.5 2.5 0 0 0 -5 0 2.5 2.5 0 0 0 5 0m2.5-1h2v2h-2l-.727099 1.75537 1.41421 1.41421-1.41421 1.41421-1.41421-1.41421-1.75537.727099v2h-2v-2l-1.75537-.727099-1.41421 1.41421-1.41421-1.41421 1.41421-1.41421-.727099-1.75537h-2v-2h2l.727099-1.75537-1.41421-1.41421 1.41421-1.41421 1.41421 1.41421 1.75537-.727099v-2h2v2l1.75537.727099 1.41421-1.41421 1.41421 1.41421-1.41421 1.41421z" fill="url(#b)"/><g transform="translate(3 3)"><path d="m-1-2v-2h1l4.5 4.5-4.5 4.5h-1v-2h-4v-5z" fill="url(#c)"/><path d="m0-1v-1.5l3 3-3 3v-1.5h-4v-3z" fill="url(#d)"/><path d="m.5 0v-.5l1 1-1 1v-.5h-3.5v-1z" fill="#8eba6f"/></g></g></svg>