<svg height="16" width="16" xmlns="http://www.w3.org/2000/svg" xmlns:xlink="http://www.w3.org/1999/xlink"><linearGradient id="a" x1="0%" x2="100%" y1="0%" y2="0%"><stop offset="0" stop-color="#f00" stop-opacity="0"/><stop offset=".5" stop-color="#f00"/><stop offset="1" stop-color="#f00" stop-opacity="0"/></linearGradient><linearGradient id="b" x1="0%" x2="0%" y1="0%" y2="100%"><stop offset="0" stop-color="#fff" stop-opacity="0"/><stop offset="1" stop-color="#fff"/></linearGradient><linearGradient id="c" x1="0%" x2="100%" y1="0%" y2="0%"><stop offset="0" stop-color="#00f" stop-opacity="0"/><stop offset=".5" stop-color="#00f"/><stop offset="1" stop-color="#00f" stop-opacity="0"/></linearGradient><linearGradient id="d" x1="0%" x2="100%" y1="0%" y2="0%"><stop offset="0" stop-color="#0f0" stop-opacity="0"/><stop offset=".5" stop-color="#0f0"/><stop offset="1" stop-color="#0f0" stop-opacity="0"/></linearGradient><linearGradient id="e" x1="0%" x2="100%" y1="0%" y2="0%"><stop offset="0" stop-color="#ff0" stop-opacity="0"/><stop offset=".5" stop-color="#ff0"/><stop offset="1" stop-color="#ff0" stop-opacity="0"/></linearGradient><linearGradient id="f" x1="0%" x2="100%" y1="0%" y2="0%"><stop offset="0" stop-color="#0ff" stop-opacity="0"/><stop offset=".5" stop-color="#0ff"/><stop offset="1" stop-color="#0ff" stop-opacity="0"/></linearGradient><linearGradient id="g" x1="0%" x2="100%" y1="0%" y2="0%"><stop offset="0" stop-color="#f0f" stop-opacity="0"/><stop offset=".5" stop-color="#f0f"/><stop offset="1" stop-color="#f0f" stop-opacity="0"/></linearGradient><mask id="i"><path d="m0 0 6.062177 3.5a7 7 0 0 1 -12.124354 0z" fill="url(#b)"/></mask><g transform="translate(8 8)"><circle fill="#fff" r="6"/><path d="m0 0 6.062177 3.5a7 7 0 0 1 -12.124354 0z" fill="url(#e)" mask="url(#i)" transform="matrix(-.8660254 -.5 .5 -.8660254 0 0)"/><path d="m0 0 6.062177 3.5a7 7 0 0 1 -12.124354 0z" fill="url(#f)" mask="url(#i)" transform="rotate(90)"/><path d="m0 0 6.062177 3.5a7 7 0 0 1 -12.124354 0z" fill="url(#g)" mask="url(#i)" transform="matrix(.8660254 -.5 .5 .8660254 0 0)"/><path d="m0 0 6.062177 3.5a7 7 0 0 1 -12.124354 0z" fill="url(#a)" mask="url(#i)" transform="rotate(-90)"/><path d="m0 0 6.062177 3.5a7 7 0 0 1 -12.124354 0z" fill="url(#c)" mask="url(#i)" transform="matrix(.8660254 .5 -.5 .8660254 0 0)"/><path d="m0 0 6.062177 3.5a7 7 0 0 1 -12.124354 0z" fill="url(#d)" mask="url(#i)" transform="matrix(-.8660254 .5 -.5 -.8660254 0 0)"/></g></svg>