<svg height="16" width="16" xmlns="http://www.w3.org/2000/svg" xmlns:xlink="http://www.w3.org/1999/xlink"><linearGradient id="a" x1="0%" x2="100%" y1="0%" y2="100%"><stop offset="0" stop-color="#ff777a"/><stop offset="1" stop-color="#ea2f31"/></linearGradient><linearGradient id="b" x1="0%" x2="100%" y1="0%" y2="100%"><stop offset="0" stop-color="#ff878a"/><stop offset=".5" stop-color="#ff7679"/><stop offset="1" stop-color="#ff6263"/></linearGradient><linearGradient id="c" x1="0%" x2="100%" y1="0%" y2="100%"><stop offset="0" stop-color="#ff5b5e"/><stop offset="1" stop-color="#ff5457"/></linearGradient><g transform="translate(8 8)"><path d="m-3 0-4 4 3 3 4-4 4 4 3-3-4-4 4-4-3-3-4 4-4-4-3 3z" fill="url(#a)"/><path d="m-2 0v1l-3 3 1 1 3-3h2l3 3 1-1-3-3v-2l3-3-1-1-3 3h-2l-3-3-1 1 3 3z" fill="url(#b)"/><path d="m-1-1h2v2h-2z" fill="url(#c)"/></g></svg>