<svg height="16" width="16" xmlns="http://www.w3.org/2000/svg" xmlns:xlink="http://www.w3.org/1999/xlink"><linearGradient id="a" x1="0%" x2="100%" y1="0%" y2="100%"><stop offset="0" stop-opacity=".28"/><stop offset="1" stop-opacity=".46"/></linearGradient><linearGradient id="b" x1="0%" x2="100%" y1="0%" y2="100%"><stop offset="0" stop-color="#fff"/><stop offset=".5" stop-color="#fff"/><stop offset="1" stop-color="#dedede"/></linearGradient><linearGradient id="c" x1="0%" x2="100%" y1="0%" y2="0%"><stop offset="0" stop-color="#eaeaea"/><stop offset=".25" stop-color="#d9d9d9"/><stop offset=".5" stop-color="#e3e3e3"/><stop offset=".75" stop-color="#bfbfbf"/><stop offset="1" stop-color="#bfbfbf"/></linearGradient><linearGradient id="d" x1="0%" x2="0%" y1="0%" y2="100%"><stop offset="0" stop-color="#6e97d4"/><stop offset="1" stop-color="#5884c3"/></linearGradient><linearGradient id="e" x1="0%" x2="100%" y1="0%" y2="100%"><stop offset="0" stop-color="#b0cdf3"/><stop offset="1" stop-color="#85a2dd"/></linearGradient><linearGradient id="f" x1="0%" x2="100%" y1="0%" y2="0%"><stop offset="0" stop-color="#a8d782"/><stop offset="1" stop-color="#d7f4a2"/></linearGradient><g transform="translate(6 7)"><path d="m6-5v10a10 10 0 0 1 -12 0v-10a10 10 0 0 1 12 0" fill="url(#a)"/><path d="m5-4.25v8.5a8 8 0 0 1 -10 0v-8.5a8 8 0 0 1 10 0" fill="url(#b)"/><path d="m4-3.25v7a7 7 0 0 1 -8 0v-7a7 7 0 0 0 8 0" fill="url(#c)"/><path d="m4-3.25v1a7 7 0 0 1 -8 0v-1a7 7 0 0 0 8 0" opacity=".1"/><g transform="translate(6 4)"><path d="m0-5h-5a1 1 0 0 0 -1 1v8a1 1 0 0 0 1 1h8a1 1 0 0 0 1-1v-7l-2-2z" fill="url(#d)"/><path d="m-5-4h8v8h-8z" fill="url(#e)"/><path d="m-4-4h6v3h-6z" fill="#fff"/><path d="m-3-4h1v2h-1z" fill="url(#e)"/><path d="m-4 1h6v3h-6z" fill="#fff"/><path id="g" d="m-3 2h2v2h-2z" fill="url(#f)"/><use transform="matrix(-1 0 0 -1 -2 6)" xlink:href="#g"/><path d="m-6-3h10v6h-10z" opacity=".05"/></g></g></svg>