<svg height="16" width="16" xmlns="http://www.w3.org/2000/svg" xmlns:xlink="http://www.w3.org/1999/xlink"><linearGradient id="a" x1="0%" x2="100%" y1="0%" y2="100%"><stop offset="0" stop-opacity=".28"/><stop offset="1" stop-opacity=".46"/></linearGradient><linearGradient id="b" x1="0%" x2="100%" y1="0%" y2="100%"><stop offset="0" stop-color="#fff"/><stop offset=".5" stop-color="#fff"/><stop offset="1" stop-color="#dedede"/></linearGradient><linearGradient id="c" x1="0%" x2="100%" y1="0%" y2="0%"><stop offset="0" stop-color="#eaeaea"/><stop offset=".25" stop-color="#d9d9d9"/><stop offset=".5" stop-color="#e3e3e3"/><stop offset=".75" stop-color="#bfbfbf"/><stop offset="1" stop-color="#bfbfbf"/></linearGradient><linearGradient id="d" x1="0%" x2="100%" y1="0%" y2="100%"><stop offset="0" stop-color="#7ccb72"/><stop offset="1" stop-color="#22601e"/></linearGradient><linearGradient id="e" x1="0%" x2="100%" y1="0%" y2="100%"><stop offset="0" stop-color="#a7d69e"/><stop offset="1" stop-color="#78bd72"/></linearGradient><g transform="translate(6 8)"><path d="m6-5v10a10 10 0 0 1 -12 0v-10a10 10 0 0 1 12 0" fill="url(#a)"/><path d="m5-4.25v8.5a8 8 0 0 1 -10 0v-8.5a8 8 0 0 1 10 0" fill="url(#b)"/><path d="m4-3.25v7a7 7 0 0 1 -8 0v-7a7 7 0 0 0 8 0" fill="url(#c)"/><path d="m4-3.25v1a7 7 0 0 1 -8 0v-1a7 7 0 0 0 8 0" opacity=".1"/><g transform="translate(6 1)"><path d="m-6 0a4 4 0 0 1 4-4h2v-2l3.5 3.5-3.5 3.5v-2h-2a1 1 0 0 0 -1 1h-4m7 1h4a4 4 0 0 1 -4 4h-2v2l-3.5-3.5 3.5-3.5v2h2a1 1 0 0 0 1-1z" fill="url(#d)"/><path d="m-5-1a3 3 0 0 1 3-2h2.5v-1.5l2 2-2 2v-1.5h-2.5a1.5 1.5 0 0 0 -1.5 1h-2m6.5 3h2a3 3 0 0 1 -3 2h-2.5v1.5l-2-2 2-2v1.5h2.5a1.5 1.5 0 0 0 1.5-1h2z" fill="url(#e)"/></g></g></svg>