<svg height="16" width="16" xmlns="http://www.w3.org/2000/svg" xmlns:xlink="http://www.w3.org/1999/xlink"><linearGradient id="a" x1="0%" x2="100%" y1="0%" y2="100%"><stop offset="0" stop-opacity=".28"/><stop offset="1" stop-opacity=".46"/></linearGradient><linearGradient id="b" x1="0%" x2="100%" y1="0%" y2="100%"><stop offset="0" stop-color="#fff"/><stop offset=".5" stop-color="#fff"/><stop offset="1" stop-color="#dedede"/></linearGradient><linearGradient id="c" x1="0%" x2="100%" y1="0%" y2="0%"><stop offset="0" stop-color="#eaeaea"/><stop offset=".25" stop-color="#d9d9d9"/><stop offset=".5" stop-color="#e3e3e3"/><stop offset=".75" stop-color="#bfbfbf"/><stop offset="1" stop-color="#bfbfbf"/></linearGradient><linearGradient id="d" x1="0%" x2="100%" y1="0%" y2="0%"><stop offset="0" stop-color="#858585"/><stop offset="1" stop-color="#4a4a4a"/></linearGradient><linearGradient id="e" x1="0%" x2="100%" y1="0%" y2="0%"><stop offset="0" stop-color="#ddd"/><stop offset="1" stop-color="#aeaeae"/></linearGradient><radialGradient id="f" cx="50%" cy="0%" r="70%"><stop offset="0" stop-color="#929292"/><stop offset="1" stop-color="#414141"/></radialGradient><radialGradient id="g" cx="50%" cy="50%" r="70%"><stop offset="0" stop-color="#cecece"/><stop offset="1" stop-color="#bdbdbd"/></radialGradient><g transform="translate(7 8)"><path d="m6-5v10a10 10 0 0 1 -12 0v-10a10 10 0 0 1 12 0" fill="url(#a)"/><path d="m5-4.25v8.5a8 8 0 0 1 -10 0v-8.5a8 8 0 0 1 10 0" fill="url(#b)"/><path d="m4-3.25v7a7 7 0 0 1 -8 0v-7a7 7 0 0 0 8 0" fill="url(#c)"/><path d="m4-3.25v1a7 7 0 0 1 -8 0v-1a7 7 0 0 0 8 0" opacity=".1"/><g transform="translate(2.5 4)"><g id="h"><path d="m-1.5-3h-1.5a3.5 3.5 0 0 0 0 7h1.5a1.5 1.5 0 0 0 0-3h-2a.5.5 0 0 1 0-1h2a1.5 1.5 0 0 0 0-3z" fill="url(#d)"/><path d="m-1.5-2h-1.5a2.5 2.5 0 0 0 0 5h1.5a.5.5 0 0 0 0-1h-1.5a1.5 1.5 0 0 1 0-3h1.5a.5.5 0 0 0 0-1z" fill="url(#e)"/></g><use transform="matrix(-1 0 0 -1 0 1)" xlink:href="#h"/><path d="m-3.25-1h6v3h-6z" fill="url(#f)"/><path d="m-2.25 0h4v1h-4z" fill="url(#g)"/></g></g></svg>