<?xml version="1.0" encoding="UTF-8"?>
<svg xmlns="http://www.w3.org/2000/svg" xmlns:xlink="http://www.w3.org/1999/xlink" width="48" height="48">
  <defs>
    <linearGradient id="h">
      <stop offset="0"/>
      <stop offset="1" stop-opacity="0"/>
    </linearGradient>
    <linearGradient id="g">
      <stop offset="0" stop-color="#9a0c00"/>
      <stop offset="1" stop-color="#9a0c00" stop-opacity="0"/>
    </linearGradient>
    <linearGradient id="f">
      <stop offset="0" stop-color="#df2a2a"/>
      <stop offset="1" stop-color="#df2a2a" stop-opacity="0"/>
    </linearGradient>
    <linearGradient id="e">
      <stop offset="0" stop-color="#e2e2e2"/>
      <stop offset="1" stop-color="#d8d8d8"/>
    </linearGradient>
    <radialGradient id="d" cx="165.061" cy="23.333" r="7.285" gradientTransform="matrix(1 0 0 1.0103 0 -.16)" gradientUnits="userSpaceOnUse">
      <stop offset="0" stop-color="#ef3535"/>
      <stop offset="1" stop-color="#a40000" stop-opacity="0"/>
    </radialGradient>
    <linearGradient id="c" x1="292.972" x2="296.94" y1="4.759" y2="10.711" gradientUnits="userSpaceOnUse">
      <stop offset="0" stop-color="#eeeeec"/>
      <stop offset="1" stop-color="#fff"/>
    </linearGradient>
    <radialGradient id="b" cx="165.061" cy="23.333" r="7.285" gradientTransform="matrix(1 0 0 1.0103 0 -.16)" gradientUnits="userSpaceOnUse">
      <stop offset="0" stop-color="#ef3535"/>
      <stop offset="0" stop-color="#c91a1a"/>
      <stop offset="1" stop-color="#ff4c4c"/>
    </radialGradient>
    <linearGradient id="a" x1="68.175" x2="74.587" y1="21.425" y2="27.837" gradientUnits="userSpaceOnUse">
      <stop offset="0" stop-color="#babdb6"/>
      <stop offset="1" stop-color="#eeeeec"/>
    </linearGradient>
    <linearGradient id="o" x1="22.225" x2="24.19" y1="23.843" y2="22.861" gradientUnits="userSpaceOnUse" xlink:href="#a"/>
    <linearGradient id="k" x1="294.595" x2="297.185" y1="12.188" y2="13.34" gradientUnits="userSpaceOnUse" xlink:href="#b"/>
    <linearGradient id="v" x1="296.762" x2="297.798" y1="12.012" y2="10.947" gradientTransform="translate(-1053.179 -16.847) scale(3.62444)" gradientUnits="userSpaceOnUse" xlink:href="#b"/>
    <linearGradient id="l" x1="296.486" x2="296.529" y1="15.507" y2="9.877" gradientTransform="matrix(3.6379 0 0 3.47038 -1056.116 -16.007)" gradientUnits="userSpaceOnUse" xlink:href="#b"/>
    <linearGradient id="i" x1="292.972" x2="296.94" y1="4.759" y2="10.711" gradientTransform="matrix(-4.12776 0 0 4.1366 1244.465 -11.905)" gradientUnits="userSpaceOnUse" xlink:href="#c"/>
    <linearGradient id="m" x1="292.972" x2="296.94" y1="4.759" y2="10.711" gradientTransform="matrix(4.05343 0 0 4.1366 -1175.535 -11.905)" gradientUnits="userSpaceOnUse" xlink:href="#c"/>
    <linearGradient id="w" x1="39.62" x2="-3.533" y1="44.541" y2="-11.889" gradientTransform="matrix(1.16188 0 0 .9925 -5.112 .064)" gradientUnits="userSpaceOnUse" xlink:href="#d"/>
    <linearGradient id="r" x1="13.825" x2="7.67" y1="40.069" y2="2.326" gradientTransform="matrix(1.16188 0 0 .9925 -2.667 .064)" gradientUnits="userSpaceOnUse" xlink:href="#b"/>
    <linearGradient id="q" x1="7.185" x2="25.152" y1="31.057" y2="50.775" gradientTransform="matrix(1.16188 0 0 .9925 -2.43 .266)" gradientUnits="userSpaceOnUse" xlink:href="#b"/>
    <linearGradient id="n" x1="20.288" x2="24.326" y1="6.46" y2="23.943" gradientUnits="userSpaceOnUse" xlink:href="#e"/>
    <linearGradient id="j" x1="20.288" x2="24.326" y1="6.46" y2="23.943" gradientUnits="userSpaceOnUse" xlink:href="#e"/>
    <radialGradient id="s" cx="34.376" cy="37.5" r="8.389" fx="34.376" fy="37.5" gradientTransform="matrix(1 0 0 1.06038 0 -2.3)" gradientUnits="userSpaceOnUse" xlink:href="#b"/>
    <linearGradient id="t" x1="298.479" x2="298.869" y1="13.6" y2="13.803" gradientUnits="userSpaceOnUse" xlink:href="#f"/>
    <linearGradient id="u" x1="298.479" x2="298.869" y1="13.6" y2="13.803" gradientUnits="userSpaceOnUse" xlink:href="#g"/>
    <radialGradient id="p" cx="25.188" cy="41.625" r="18.063" fx="25.188" fy="41.625" gradientTransform="matrix(1 0 0 .32526 0 28.086)" gradientUnits="userSpaceOnUse" xlink:href="#h"/>
  </defs>
  <path fill="url(#i)" stroke="#888a85" stroke-linecap="round" stroke-linejoin="round" d="M 34.174311,1.6249997 C 34.386261,1.6935355 34.59157,1.7696619 34.798294,1.842502 C 35.449709,4.0395037 38.469777,6.2612218 37.321354,8.4491328 C 33.495509,14.82952 29.697021,21.294565 25.899759,27.72527 C 25.154013,27.872172 24.401732,27.952183 23.647995,27.96996 C 22.061603,28.01017 20.433063,27.775465 18.927431,27.23589 C 23.978303,18.684616 29.031301,10.114483 34.174311,1.6249997 z"/>
  <path fill="url(#j)" d="M 34.288823,4.25 C 34.057702,4.5574529 33.839208,5.120942 33.602793,5.40625 C 29.555938,12.158979 25.440784,18.900329 21.378976,25.625 C 21.318425,25.878117 20.565047,26.637291 21.366935,26.567963 C 22.478492,26.765843 23.638682,26.918567 24.746762,26.625 C 28.505752,20.407794 32.192639,14.142582 35.943048,7.9231779 C 36.285519,7.5359043 36.352163,6.9979201 35.992403,6.611197 C 35.462387,5.7945892 34.925464,4.9364821 34.382373,4.15625 L 34.311813,4.2269607 L 34.288823,4.25 z"/>
  <path fill="url(#k)" stroke="#9a0c00" stroke-linecap="round" stroke-linejoin="round" stroke-width=".281" d="M297.044 12.3L296.399 13.385 295.133 14.719 294.732 13.673 295.747 11.96 297.044 12.3z" transform="matrix(3.6379 0 0 3.47038 -1056.116 -16.007)"/>
  <path fill="url(#l)" d="M 20.40625,26.96875 C 19.183905,27.455468 19.192232,29.003929 18.481272,29.932762 C 18.138949,30.648557 17.537483,31.278989 17.28125,32.03125 C 17.271571,32.546641 17.729203,33.391474 18.3125,32.9375 C 19.697476,31.791172 20.876866,30.398821 21.756725,28.810629 C 21.989088,28.320596 22.552476,27.916466 22.625,27.40625 C 22.086431,26.835441 21.112182,26.873225 20.40625,26.96875 z"/>
  <path fill="url(#m)" stroke="#888a85" stroke-linecap="round" stroke-linejoin="round" d="M 12.960099,1.6249997 C 12.751966,1.6935355 12.550355,1.7696619 12.347353,1.842502 C 11.707669,4.0395037 8.7419877,6.2612218 9.8697297,8.4491328 C 13.626677,14.82952 17.35676,21.294565 21.085639,27.72527 C 21.817956,27.872172 22.55669,27.952183 23.296853,27.96996 C 24.854677,28.01017 26.453889,27.775465 27.932407,27.23589 C 22.972493,18.684616 18.010492,10.114483 12.960099,1.6249997 z"/>
  <path fill="url(#n)" d="M 12.719667,4.25 C 12.336632,5.3766793 11.270006,6.2059645 11.004855,7.40625 C 14.713376,13.800362 18.475798,20.175378 22.181757,26.5625 C 23.380123,26.820799 24.610198,26.655657 25.795112,26.40625 C 25.606339,25.665807 25.056911,25.075319 24.765129,24.3767 C 20.870526,17.806174 16.941429,11.242872 13.087127,4.65625 C 13.072466,4.5046403 12.870425,4.1721152 12.719667,4.25 z"/>
  <path fill="url(#o)" d="M 24.190449 23.843431 A 0.98252523 0.98252523 0 1 1 22.225399,23.843431 A 0.98252523 0.98252523 0 1 1 24.190449 23.843431 z" color="#000" style="marker:none" transform="matrix(.9799 0 0 1 .311 .174)"/>
  <path fill="url(#p)" fill-rule="evenodd" d="M 43.25 41.625 A 18.0625 5.875 0 1 1 7.125,41.625 A 18.0625 5.875 0 1 1 43.25 41.625 z" color="#000" opacity=".267" style="marker:none" transform="matrix(1.25605 0 0 .81915 -7.2 9.09)"/>
  <path fill="url(#q)" stroke="#a40000" d="M 17.700393,30.286934 C 20.935404,32.013583 21.196229,36.899851 18.278338,41.201286 C 15.360479,45.50525 10.373849,47.596472 7.1373807,45.877418 C 3.9008825,44.150767 3.6415462,39.267032 6.5594356,34.965597 C 9.4758075,30.664166 14.463925,28.572944 17.700393,30.286934 z M 15.845268,33.029079 C 14.408745,32.26545 11.33781,33.569599 9.3789266,36.463107 C 7.4160164,39.356612 7.5560293,42.376624 8.991202,43.137951 C 10.426348,43.906181 13.499985,42.597432 15.458868,39.703925 C 17.42313,36.81042 17.281765,33.792709 15.845268,33.029079 z"/>
  <path fill="url(#r)" d="M 14.3255,30.583289 C 12.400369,30.97051 10.691041,32.037306 9.2785926,33.064531 C 8.5268294,33.759433 8.0350294,34.514452 7.3629449,35.31874 C 5.6546178,37.670805 4.9387067,40.762168 6.2901069,43.388409 C 6.90956,44.841515 8.9327419,45.435852 10.658323,45.067542 C 12.110236,44.819078 13.339639,43.906473 14.470735,43.268641 C 15.391637,42.47786 16.024749,41.642131 16.803626,40.677364 C 18.612986,38.202962 19.595537,34.928687 18.101604,32.165081 C 17.377898,31.022952 15.866963,30.41829 14.3255,30.583289 z M 14.797513,31.54477 C 16.814017,31.795124 18.154487,33.577585 17.92006,35.266634 C 17.940833,37.553573 16.774038,39.710728 15.196909,41.500756 C 13.779705,42.902737 11.848294,44.229027 9.5327534,44.137076 C 8.1738996,44.134209 7.100179,43.224779 6.7169325,42.176618 C 6.1002938,39.644695 6.9116496,36.911389 8.6831288,34.83862 C 10.041367,33.315308 11.877976,31.95152 14.150642,31.596926 C 14.366331,31.581652 14.581522,31.554432 14.797513,31.54477 z"/>
  <path fill="url(#s)" stroke="#a40000" d="M 30.331764,30.286934 C 27.096753,32.013583 26.835929,36.899851 29.75382,41.201286 C 32.671679,45.50525 37.658309,47.596472 40.894777,45.877418 C 44.131276,44.150767 44.390611,39.267032 41.472722,34.965597 C 38.55635,30.664166 33.568233,28.572944 30.331764,30.286934 z M 32.18689,33.029079 C 33.623412,32.26545 36.694348,33.569599 38.653231,36.463107 C 40.616141,39.356612 40.476128,42.376624 39.040956,43.137951 C 37.60581,43.906181 34.532173,42.597432 32.57329,39.703925 C 30.609028,36.81042 30.750393,33.792709 32.18689,33.029079 z"/>
  <path fill="url(#t)" stroke="url(#u)" stroke-linecap="round" stroke-linejoin="round" stroke-width=".276" d="M296.956 12.3L297.6 13.385 298.867 14.719 299.268 13.673 298.254 11.96 296.956 12.3z" transform="translate(-1053.179 -16.847) scale(3.62444)"/>
  <path fill="url(#v)" d="M 26.15625,27.9375 C 25.729502,28.136321 25.139436,28.138981 24.8125,28.4375 C 25.76252,29.838889 26.702412,31.352161 27.663379,32.650077 C 28.331933,33.404621 29.019194,34.150303 29.78125,34.8125 C 30.516527,33.421076 29.91641,31.751292 28.96875,30.625 C 28.366215,29.725307 28.138928,28.512038 27.125,28.03125 C 26.820951,27.912839 26.474385,27.853373 26.15625,27.9375 z"/>
  <path fill="url(#w)" d="M 32.280087,30.449093 C 30.759703,30.678844 29.385141,31.534748 29.039639,32.837057 C 27.908495,35.232508 28.824763,37.950571 30.319418,40.063908 C 31.421345,41.40911 32.259488,42.993821 33.959001,43.837878 C 35.429654,44.761502 37.300143,45.728452 39.176641,45.138766 C 40.689956,44.705317 41.547313,43.4582 41.856813,42.166912 C 42.461243,39.856882 41.561117,37.490951 40.149846,35.530428 C 39.491173,34.616722 38.816861,33.647222 38.036528,32.835783 C 36.841969,31.932329 35.398614,31.184254 33.947688,30.603431 C 33.41359,30.493019 32.832464,30.37069 32.280087,30.449093 z M 32.715792,31.658699 C 34.473095,31.591923 35.950305,32.398157 37.092162,33.427664 C 38.124459,34.396792 39.113817,35.23287 39.754673,36.426541 C 40.831856,38.24711 41.142534,40.4065 40.594777,42.390073 C 40.066397,43.714585 38.368623,44.362109 36.803657,44.006518 C 34.821776,43.77769 33.586317,42.335503 32.277091,41.198158 C 30.771344,39.766768 29.83647,37.719532 29.76651,35.715783 C 29.780622,34.698114 29.740042,33.53736 30.464653,32.682212 C 30.876926,32.139062 31.84466,31.627886 32.715792,31.658699 z"/>
</svg>