<?xml version="1.0" encoding="UTF-8" standalone="no"?>
<svg
   xmlns:dc="http://purl.org/dc/elements/1.1/"
   xmlns:cc="http://creativecommons.org/ns#"
   xmlns:rdf="http://www.w3.org/1999/02/22-rdf-syntax-ns#"
   xmlns:svg="http://www.w3.org/2000/svg"
   xmlns="http://www.w3.org/2000/svg"
   id="svg1157"
   version="1.1"
   height="16"
   width="16">
  <metadata
     id="metadata1163">
    <rdf:RDF>
      <cc:Work
         rdf:about="">
        <dc:format>image/svg+xml</dc:format>
        <dc:type
           rdf:resource="http://purl.org/dc/dcmitype/StillImage" />
        <dc:title>Find Edit</dc:title>
      </cc:Work>
    </rdf:RDF>
  </metadata>
  <defs
     id="defs1161" />
  <title
     id="title996">Find Edit</title>
  <desc
     id="desc998">Find Edit</desc>
  <g
     transform="translate(8,8)"
     id="icon">
    <defs
       id="defs1053">
      <linearGradient
         y2="100%"
         x2="100%"
         y1="0%"
         x1="0%"
         id="backing">
        <stop
           id="stop1000"
           stop-color="#767a80"
           offset="0%" />
        <stop
           id="stop1002"
           stop-color="#000000"
           offset="100%" />
      </linearGradient>
      <linearGradient
         y2="0%"
         x2="100%"
         y1="0%"
         x1="0%"
         id="block">
        <stop
           id="stop1005"
           stop-color="#86929f"
           offset="0%" />
        <stop
           id="stop1007"
           stop-color="#bac3cc"
           offset="33%" />
        <stop
           id="stop1009"
           stop-color="#8b98a6"
           offset="100%" />
      </linearGradient>
      <linearGradient
         y2="0%"
         x2="100%"
         y1="0%"
         x1="0%"
         id="shade">
        <stop
           id="stop1012"
           stop-opacity="0"
           stop-color="#000"
           offset="0%" />
        <stop
           id="stop1014"
           stop-opacity="0.7"
           stop-color="#000"
           offset="20%" />
        <stop
           id="stop1016"
           stop-color="#000"
           offset="100%" />
      </linearGradient>
      <linearGradient
         y2="0%"
         x2="100%"
         y1="0%"
         x1="0%"
         id="shade2">
        <stop
           id="stop1019"
           stop-color="#000"
           offset="0%" />
        <stop
           id="stop1021"
           stop-opacity="0.7"
           stop-color="#000"
           offset="80%" />
        <stop
           id="stop1023"
           stop-opacity="0"
           stop-color="#000"
           offset="100%" />
      </linearGradient>
      <linearGradient
         y2="100%"
         x2="0%"
         y1="0%"
         x1="0%"
         id="swivel-shade">
        <stop
           id="stop1026"
           stop-opacity="0.4"
           stop-color="#000"
           offset="0%" />
        <stop
           id="stop1028"
           stop-opacity="0"
           stop-color="#000"
           offset="100%" />
      </linearGradient>
      <linearGradient
         y2="0%"
         x2="100%"
         y1="0%"
         x1="0%"
         id="swivel">
        <stop
           id="stop1031"
           stop-color="#7b91aa"
           offset="0%" />
        <stop
           id="stop1033"
           stop-color="#94a7ba"
           offset="33%" />
        <stop
           id="stop1035"
           stop-color="#7d8d9f"
           offset="100%" />
      </linearGradient>
      <linearGradient
         y2="100%"
         x2="100%"
         y1="0%"
         x1="0%"
         id="top-left">
        <stop
           id="stop1038"
           stop-color="#7d8a96"
           offset="0%" />
        <stop
           id="stop1040"
           stop-color="#484f56"
           offset="100%" />
      </linearGradient>
      <linearGradient
         y2="100%"
         x2="100%"
         y1="0%"
         x1="0%"
         id="top-right">
        <stop
           id="stop1043"
           stop-color="#93a0ae"
           offset="0%" />
        <stop
           id="stop1045"
           stop-color="#010101"
           offset="100%" />
      </linearGradient>
      <linearGradient
         y2="100%"
         x2="100%"
         y1="0%"
         x1="0%"
         id="top-center">
        <stop
           id="stop1048"
           stop-color="#aeb8c3"
           offset="0%" />
        <stop
           id="stop1050"
           stop-color="#5e6770"
           offset="100%" />
      </linearGradient>
    </defs>
    <path
       id="path1055"
       d="M0,0 h6 v5.5 a0.5,0.5 0 0,1 -.5,0.5 h-5 a0.5,0.5 0 0,1 -.5,-.5 v-5.5 m-1,0 h-6 v5.5 a0.5,0.5 0 0,0 0.5,0.5 h5 a0.5,0.5 0 0,0 0.5,-.5 l0-5.5 z"
       fill="url(#backing)" />
    <rect
       id="rect1057"
       fill="url(#backing)"
       y="-1"
       x="-1"
       height="1.5"
       width="1" />
    <rect
       id="rect1059"
       fill="url(#block)"
       y="1"
       x="1"
       height="4"
       width="4" />
    <rect
       id="rect1061"
       fill="url(#block)"
       y="1"
       x="-6"
       height="4"
       width="4" />
    <rect
       id="rect1063"
       opacity="0.3"
       fill="url(#shade2)"
       y="2"
       x="-7"
       height="3"
       width="2" />
    <rect
       id="rect1065"
       opacity="0.3"
       fill="url(#shade2)"
       y="2"
       x="0"
       height="3"
       width="2" />
    <rect
       id="rect1067"
       opacity="0.3"
       fill="url(#shade)"
       y="2"
       x="-4"
       height="3"
       width="3" />
    <rect
       id="rect1069"
       opacity="0.3"
       fill="url(#shade)"
       y="2"
       x="3"
       height="3"
       width="3" />
    <path
       id="path1071"
       d="M0,0 v-6 h3 v1.5 a0.5,0.5 0 0,0 0.5,0.5 l0.5,0 a2,2 0 0,1 2,2 v2 "
       fill="url(#top-right)" />
    <path
       id="path1073"
       d="M1,0 v-5 h1 v1.5 a0.5,0.5 0 0,0 0.5,0.5 l0.5,0 a2,2 0 0,1 2,2 v1 "
       fill="url(#top-center)" />
    <path
       id="path1075"
       d="M-1,0 v-6 h-3 v1.5 a0.5,0.5 0 0,1 -.5,0.5 l-0.5,0 a2,2 0 0,0 -2,2 v2 "
       fill="url(#top-left)" />
    <path
       id="path1077"
       d="M-2,0 v-5 h-1 v1.5 a0.5,0.5 0 0,1 -.5,0.5 l-0.5,0 a2,2 0 0,0 -2,2 v1 "
       fill="url(#top-center)" />
    <rect
       id="rect1079"
       fill="url(#swivel)"
       y="-3"
       x="-3"
       height="2"
       width="5" />
    <rect
       id="rect1081"
       fill="url(#swivel-shade)"
       y="-3"
       x="-3"
       height="1.5"
       width="5" />
    <g
       transform="translate(2,2)"
       id="pencil">
      <defs
         id="defs1141">
        <linearGradient
           y2="0%"
           x2="100%"
           y1="0%"
           x1="0%"
           id="top_center">
          <stop
             id="stop1083"
             stop-color="#f7e1c9"
             offset="0%" />
          <stop
             id="stop1085"
             stop-color="#f4cfa5"
             offset="100%" />
        </linearGradient>
        <linearGradient
           y2="100%"
           x2="0%"
           y1="0%"
           x1="100%"
           id="pencil-back">
          <stop
             id="stop1088"
             stop-opacity="1.0"
             stop-color="#ca9350"
             offset="0%" />
          <stop
             id="stop1090"
             stop-opacity="0.5"
             stop-color="#ca9350"
             offset="20%" />
          <stop
             id="stop1092"
             stop-opacity="0.0"
             stop-color="#ca9350"
             offset="30%" />
          <stop
             id="stop1094"
             stop-opacity="0.0"
             stop-color="#936d1e"
             offset="55%" />
          <stop
             id="stop1096"
             stop-opacity="0.3"
             stop-color="#936d1e"
             offset="65%" />
          <stop
             id="stop1098"
             stop-opacity="0.9"
             stop-color="#936d1e"
             offset="80%" />
          <stop
             id="stop1100"
             stop-opacity="1.0"
             stop-color="#936d1e"
             offset="92%" />
          <stop
             id="stop1102"
             stop-opacity="1.0"
             stop-color="#594212"
             offset="94%" />
        </linearGradient>
        <linearGradient
           y2="63%"
           x2="63%"
           y1="37%"
           x1="37%"
           id="pencil-cross">
          <stop
             id="stop1105"
             stop-color="#e4ba2f"
             offset="0%" />
          <stop
             id="stop1107"
             stop-color="#d98f3b"
             offset="100%" />
        </linearGradient>
        <linearGradient
           y2="100%"
           x2="0%"
           y1="0%"
           x1="100%"
           id="pencil-nib">
          <stop
             id="stop1110"
             stop-opacity="1.0"
             stop-color="#fae7d1"
             offset="0%" />
          <stop
             id="stop1112"
             stop-opacity="0.9"
             stop-color="#fae7d1"
             offset="75%" />
          <stop
             id="stop1114"
             stop-opacity="0.0"
             stop-color="#fae7d1"
             offset="100%" />
        </linearGradient>
        <linearGradient
           y2="63%"
           x2="63%"
           y1="37%"
           x1="37%"
           id="pencil-outer">
          <stop
             id="stop1117"
             stop-color="#f8edc3"
             offset="0%" />
          <stop
             id="stop1119"
             stop-color="#fcf4b3"
             offset="10%" />
          <stop
             id="stop1121"
             stop-color="#f4d644"
             offset="45%" />
          <stop
             id="stop1123"
             stop-color="#f4d644"
             offset="55%" />
          <stop
             id="stop1125"
             stop-color="#fcf4b3"
             offset="90%" />
          <stop
             id="stop1127"
             stop-color="#faee8e"
             offset="100%" />
        </linearGradient>
        <linearGradient
           y2="100%"
           x2="100%"
           y1="0%"
           x1="0%"
           id="pencil-nib-shadow">
          <stop
             id="stop1130"
             stop-opacity="0.0"
             stop-color="#e07500"
             offset="0%" />
          <stop
             id="stop1132"
             stop-opacity="0.2"
             stop-color="#e07500"
             offset="40%" />
          <stop
             id="stop1134"
             stop-opacity="0.45"
             stop-color="#e07500"
             offset="50%" />
          <stop
             id="stop1136"
             stop-opacity="0.4"
             stop-color="#e07500"
             offset="60%" />
          <stop
             id="stop1138"
             stop-opacity="0.0"
             stop-color="#e07500"
             offset="100%" />
        </linearGradient>
      </defs>
      <path
         id="path1143"
         d="M2,-5 l-8,8 v3 h3 l8,-8 a2,1.25 45 0,0 -3,-3"
         fill="url(#pencil-cross)" />
      <path
         id="path1145"
         d="M2,-5 l-8,8 v3 h3 l8,-8 a2,1.25 45 0,0 -3,-3"
         fill="url(#pencil-back)" />
      <ellipse
         id="ellipse1147"
         fill="url(#top_center)"
         ry="0.75"
         rx="1.25"
         cy="0"
         cx="0"
         transform="translate(3.5,-3.5) rotate(45)" />
      <path
         id="path1149"
         d="M-5,5 h2 l1,-1 a1.41,0.75 45 0,1 -2,-2 l-1,1 v2"
         fill="url(#pencil-nib)" />
      <path
         id="path1151"
         d="M-5,5 h2 l1,-1 a1.41,0.75 45 0,1 -2,-2 l-1,1 v2"
         fill="url(#pencil-nib-shadow)" />
      <path
         id="path1153"
         d="M2,-4 l-5.5,5.5 a1.41,0.75 45 0,0 2,2 l5.5,-5.5 a1.41,0.75 45 0,1 -2,-2"
         fill="url(#pencil-outer)" />
    </g>
  </g>
</svg>
