<svg height="16" width="16" xmlns="http://www.w3.org/2000/svg" xmlns:xlink="http://www.w3.org/1999/xlink"><linearGradient id="a" x1="0%" x2="0%" y1="0%" y2="100%"><stop offset="0" stop-color="#d9b434"/><stop offset="1" stop-color="#d8862c"/></linearGradient><linearGradient id="b" x1="0%" x2="100%" y1="0%" y2="100%"><stop offset="0" stop-color="#fff"/><stop offset="1" stop-color="#fbf2ca"/></linearGradient><linearGradient id="c"><stop offset="0" stop-color="#f8e48e"/><stop offset="1" stop-color="#e9c173"/></linearGradient><linearGradient id="d" x1="0%" x2="100%" xlink:href="#c" y1="0%" y2="100%"/><linearGradient id="e" x1="100%" x2="0%" xlink:href="#c" y1="0%" y2="0%"/><linearGradient id="f" x1="0%" x2="100%" y1="0%" y2="100%"><stop offset="0" stop-color="#fcf2c8"/><stop offset="1" stop-color="#f0cb26"/></linearGradient><g transform="translate(8 8)"><path d="m0-4h6a1 1 0 0 1 1 1v8a1 1 0 0 1 -1 1h-12a1 1 0 0 1 -1-1v-9.5a.5.5 0 0 1 .5-.5h6a.5.5 0 0 1 .5.5.5.5 0 0 0 .5.5z" fill="url(#a)"/><path d="m0-3h6v8h-12v-9h6z" fill="url(#b)"/><path d="m-2-2h7v1h-7z" fill="url(#e)"/><path d="m-5-3h4v2l-1 1h-3z" fill="url(#d)"/><path d="m0 0h5v5h-10v-4h4z" fill="url(#f)"/><path d="m-6 4h12v1h-12z" opacity=".05"/></g></svg>