<svg height="16" width="16" xmlns="http://www.w3.org/2000/svg" xmlns:xlink="http://www.w3.org/1999/xlink"><linearGradient id="a" x1="0%" x2="100%" y1="0%" y2="100%"><stop offset="0" stop-color="#438bd8"/><stop offset="1" stop-color="#3155c6"/></linearGradient><linearGradient id="b" x1="0%" x2="100%" y1="0%" y2="100%"><stop offset="0" stop-color="#91bce9"/><stop offset="1" stop-color="#6b96dc"/></linearGradient><linearGradient id="c" x1="0%" x2="100%" y1="0%" y2="100%"><stop offset="0" stop-color="#6e9458"/><stop offset="1" stop-color="#376b19"/></linearGradient><linearGradient id="d" x1="0%" x2="100%" y1="0%" y2="100%"><stop offset="0" stop-color="#b1d390"/><stop offset="1" stop-color="#8fbc67"/></linearGradient><g transform="translate(8 8)"><path d="m1-6h4.5v2h-1v7a2 2 0 0 0 2 2h-6a2 2 0 0 0 2-2v-1h-2.6666l-.6666 1a2 2 0 0 0 2 2h-7a2.7 2.7 0 0 0 2-1l5-8h-1v-2h2m.333 4-2 3h2z" fill="url(#a)"/><path d="m1-5.5h4v1h-1v8a1 1 0 0 0 1 1h-3a1 1 0 0 0 1-1v-7l-4.3333 6.5h.5a1 1 0 0 0 1 1h-3.5a2 2 0 0 0 1-1l4.8-8h-1.5v-1h2z" fill="url(#b)"/></g><g transform="translate(12.5 12.5)"><circle fill="url(#c)" r="3.5"/><circle fill="url(#d)" r="2.5"/><path d="m-.5-.5v-1h1v1h1v1h-1v1h-1v-1h-1v-1z" fill="#fff"/></g></svg>