<svg height="16" width="16" xmlns="http://www.w3.org/2000/svg" xmlns:xlink="http://www.w3.org/1999/xlink"><linearGradient id="a" x1="0%" x2="100%" y1="0%" y2="0%"><stop offset="0" stop-color="#bed7f6"/><stop offset="1" stop-color="#3769a5"/></linearGradient><linearGradient id="b" x1="0%" x2="100%" y1="0%" y2="0%"><stop offset="0" stop-color="#dae5f3"/><stop offset="1" stop-color="#d1e0ec"/></linearGradient><linearGradient id="c" x1="0%" x2="100%" y1="0%" y2="0%"><stop offset="0" stop-color="#7ea8d5"/><stop offset="1" stop-color="#6187b2"/></linearGradient><g transform="translate(8 8)"><circle fill="url(#a)" r="7" transform="matrix(.70710678 .70710678 -.70710678 .70710678 0 0)"/><circle fill="url(#b)" r="6" transform="matrix(.70710678 .70710678 -.70710678 .70710678 0 0)"/><circle fill="url(#c)" r="5"/><g fill="#fff"><path d="m-1 .5h.5 2v-.5a2.3 2.3 0 1 0 -3-3v1a.5.5 0 1 0 1 0 1 1 0 0 1 1-1 1 1 0 0 1 1 1 1 1 0 0 1 -1 1 1 1 0 0 0 -1 1z"/><path d="m-1 2h2v1.5h-2z"/></g></g></svg>