<svg height="16" width="16" xmlns="http://www.w3.org/2000/svg" xmlns:xlink="http://www.w3.org/1999/xlink"><linearGradient id="a" x1="0%" x2="100%" y1="0%" y2="0%"><stop offset="0" stop-color="#e3b044"/><stop offset="1" stop-color="#d67d29"/></linearGradient><linearGradient id="b" x1="0%" x2="100%" y1="0%" y2="0%"><stop offset="0" stop-color="#fefcf1"/><stop offset="1" stop-color="#f7e289"/></linearGradient><linearGradient id="c"><stop offset="0" stop-color="#eec528" stop-opacity="0"/><stop offset="1" stop-color="#eec528"/></linearGradient><linearGradient id="d" x1="0%" x2="0%" xlink:href="#c" y1="0%" y2="100%"/><linearGradient id="e" x1="0%" x2="100%" xlink:href="#c" y1="0%" y2="100%"/><g transform="translate(8 8)"><path d="m-8 8v-6h2v-2h3l1-1a3 3 0 0 1 -1-3.5l3-3a3 3 0 0 1 3.5 0l3 3a3 3 0 0 1 1 3.5l-3 3a3 3 0 0 1 -3 0l-6 6z" fill="url(#a)"/><path d="m-7 7v-4h2v-2h2.5l3-3 1.8 1.8-7.2 7.2z" fill="url(#b)"/><path d="m-1.5-2a3 3 0 0 1 -1-3.5l3-3a3 3 0 0 1 3.5 0l3.3 3.3a3 3 0 0 1 1 3.5l-3 3a3 3 0 0 1 -3 0z" fill="url(#b)" transform="scale(.8)"/><path d="m-.4-3.2a3 3 0 0 1 -1-3.5l3-3a3 3 0 0 1 3.5 0l3.3 3.3a3 3 0 0 1 1 3.5l-3 3a3 3 0 0 1 -3 0z" fill="url(#e)" transform="scale(.6)"/><path d="m-6 6v-1l6-6 1 1-6 6z" fill="url(#d)"/><path d="m0 0h2v1h-2z" fill="url(#a)" transform="matrix(.70710678 .70710678 -.70710678 .70710678 3 -5)"/></g></svg>