<svg height="16" width="16" xmlns="http://www.w3.org/2000/svg" xmlns:xlink="http://www.w3.org/1999/xlink"><linearGradient id="a" x1="0%" x2="100%" y1="0%" y2="100%"><stop offset="0" stop-color="#5f93ce"/><stop offset="1" stop-color="#4d6ea6"/></linearGradient><linearGradient id="b" x1="0%" x2="100%" y1="0%" y2="100%"><stop offset="0" stop-color="#9cc4ed"/><stop offset="1" stop-color="#9bc4ed"/></linearGradient><linearGradient id="c" x1="0%" x2="100%" y1="0%" y2="100%"><stop offset="0" stop-color="#c1daf4"/><stop offset="1" stop-color="#c2dbf4"/></linearGradient><linearGradient id="d" x1="0%" x2="0%" y1="0%" y2="100%"><stop offset="0" stop-color="#59a853"/><stop offset="1" stop-color="#459440"/></linearGradient><linearGradient id="e" x1="0%" x2="0%" y1="0%" y2="100%"><stop offset="0" stop-color="#7dcb73"/><stop offset="1" stop-color="#78c76e"/></linearGradient><g transform="translate(8 8)"><rect fill="url(#a)" height="14" rx="1" width="14" x="-7" y="-7"/><path d="m-6-6h12v12h-12z" fill="#fff"/><path d="m-5-5h10v3h-10z" fill="url(#b)"/><path d="m-4-4h8v1h-8z" fill="url(#c)"/><path d="m-5-1h3v6h-3z" fill="url(#d)"/><path d="m-4 0h1v4h-1z" fill="url(#e)"/><path d="m-1-1h6v6h-6z" fill="#dee5f0"/><path d="m0 0h4v4h-4z" fill="#ebeff6"/><path d="m1 1h2v2h-2z" fill="#e6ecf5"/></g></svg>