<svg height="16" width="16" xmlns="http://www.w3.org/2000/svg" xmlns:xlink="http://www.w3.org/1999/xlink"><linearGradient id="a" x1="0%" x2="100%" y1="0%" y2="0%"><stop offset="0" stop-color="#858585"/><stop offset="1" stop-color="#4a4a4a"/></linearGradient><linearGradient id="b" x1="0%" x2="100%" y1="0%" y2="0%"><stop offset="0" stop-color="#ddd"/><stop offset="1" stop-color="#aeaeae"/></linearGradient><linearGradient id="c" x1="0%" x2="100%" y1="0%" y2="100%"><stop offset="0" stop-color="#5494e1"/><stop offset="1" stop-color="#3259cd"/></linearGradient><g transform="translate(8 8)"><g id="d"><path d="m-2-3h-2.5a3.5 3.5 0 0 0 -3.5 3.5 3.5 3.5 0 0 0 3.5 3.5h2.5a1 1.5 0 0 0 0-3h-2.5a.5.5 0 0 1 0-1h2.5a1 1.5 0 0 0 0-3z" fill="url(#a)"/><path d="m-3-2h-1.5a2.5 2.5 0 0 0 -2.5 2.5 2.5 2.5 0 0 0 2.5 2.5h1.5a.5.5 0 0 0 0-1h-1.5a1.5 1.5 0 0 1 -1.5-1.5 1.5 1.5 0 0 1 1.5-1.5h1.5a.5.5 0 0 0 0-1z" fill="url(#b)"/></g><use transform="matrix(-1 0 0 -1 -1 1)" xlink:href="#d"/><path d="m-2-3-3-3h1l3 3m0-1v-2h1v2zm1 1 3-3h1l-3 3zm0 7h1l3 3h-1zm0 1v2h-1v-2zm-1-1-3 3h-1l3-3z" fill="url(#c)"/></g></svg>