<svg height="16" width="16" xmlns="http://www.w3.org/2000/svg" xmlns:xlink="http://www.w3.org/1999/xlink"><linearGradient id="a" x1="0%" x2="100%" y1="0%" y2="100%"><stop offset="0" stop-color="#d8d8d8"/><stop offset=".5" stop-color="#a9a9a9"/><stop offset="1" stop-color="#727272"/></linearGradient><linearGradient id="b" x1="0%" x2="100%" y1="0%" y2="100%"><stop offset="0" stop-color="#dfe1e3"/><stop offset="1" stop-color="#d6d6d8"/></linearGradient><linearGradient id="c" x1="0%" x2="100%" y1="0%" y2="0%"><stop offset="0" stop-color="#4d72a7"/><stop offset="1" stop-color="#4d72a7"/></linearGradient><linearGradient id="d" x1="0%" x2="100%" y1="0%" y2="0%"><stop offset="0" stop-color="#698fc5"/><stop offset="1" stop-color="#759ed4"/></linearGradient><linearGradient id="e" x1="0%" x2="100%" y1="0%" y2="100%"><stop offset="0" stop-color="#92aed6" stop-opacity=".7"/><stop offset="1" stop-color="#92aed6" stop-opacity=".1"/></linearGradient><linearGradient id="f" x1="0%" x2="100%" y1="0%" y2="100%"><stop offset="0" stop-color="#8d8d8d"/><stop offset="1" stop-color="#666"/></linearGradient><linearGradient id="g" x1="0%" x2="100%" y1="0%" y2="100%"><stop offset="0" stop-color="#c5c6c8"/><stop offset="1" stop-color="#c7c8cd"/></linearGradient><linearGradient id="h" x1="0%" x2="100%" y1="0%" y2="0%"><stop offset="0" stop-color="#858585"/><stop offset="1" stop-color="#4a4a4a"/></linearGradient><linearGradient id="i" x1="0%" x2="100%" y1="0%" y2="0%"><stop offset="0" stop-color="#ddd"/><stop offset="1" stop-color="#aeaeae"/></linearGradient><radialGradient id="j" cx="50%" cy="0%" r="70%"><stop offset="0" stop-color="#929292"/><stop offset="1" stop-color="#414141"/></radialGradient><radialGradient id="k" cx="50%" cy="50%" r="70%"><stop offset="0" stop-color="#cecece"/><stop offset="1" stop-color="#bdbdbd"/></radialGradient><g transform="translate(8 8)"><rect fill="url(#a)" height="11" rx="1" width="14" x="-7" y="-8"/><path d="m-6-7h12v9h-12z" fill="url(#b)"/><path d="m-5-6h10v7h-10z" fill="url(#c)"/><path d="m-4-5h8v5h-8z" fill="url(#d)"/><path d="m-5-6h10v7" fill="url(#e)"/><path d="m2 3a1 1 0 0 0 1 1h.5a1.5 1.5 0 0 1 0 3h-7a1.5 1.5 0 0 1 0-3h.5a1 1 0 0 0 1-1" fill="url(#f)"/><path d="m1 3a1 1 0 0 0 1 1h.5a1.5 1.5 0 0 1 1 1h-7a1.5 1.5 0 0 1 1-1h.5a1 1 0 0 0 1-1" fill="url(#g)"/><path d="m-3.5 5h7v1h-7z" fill="#f7f7f7"/><g transform="translate(1.5 4)"><g id="l"><path d="m-1.5-3h-1.5a3.5 3.5 0 0 0 0 7h1.5a1.5 1.5 0 0 0 0-3h-2a.5.5 0 0 1 0-1h2a1.5 1.5 0 0 0 0-3z" fill="url(#h)"/><path d="m-1.5-2h-1.5a2.5 2.5 0 0 0 0 5h1.5a.5.5 0 0 0 0-1h-1.5a1.5 1.5 0 0 1 0-3h1.5a.5.5 0 0 0 0-1z" fill="url(#i)"/></g><use transform="matrix(-1 0 0 -1 0 1)" xlink:href="#l"/><path d="m-3.25-1h6v3h-6z" fill="url(#j)"/><path d="m-2.25 0h4v1h-4z" fill="url(#k)"/></g></g></svg>