<svg height="16" width="16" xmlns="http://www.w3.org/2000/svg" xmlns:xlink="http://www.w3.org/1999/xlink"><defs><linearGradient id="a" x1="0%" x2="100%" y1="0%" y2="100%"><stop offset="0" stop-color="#d9b74f"/><stop offset="1" stop-color="#c88e2c"/></linearGradient><linearGradient id="b" x1="0%" x2="100%" y1="0%" y2="100%"><stop offset="0" stop-color="#d7b04a"/><stop offset="1" stop-color="#c58726"/></linearGradient><linearGradient id="c" x1="0%" x2="100%" y1="0%" y2="100%"><stop offset="0" stop-color="#fef8e1"/><stop offset="1" stop-color="#e8e8e8"/></linearGradient><linearGradient id="d" x1="0%" x2="100%" y1="0%" y2="100%"><stop offset="0" stop-color="#f7e4b2"/><stop offset="1" stop-color="#ecc483"/></linearGradient><linearGradient id="e" x1="0%" x2="100%" y1="0%" y2="100%"><stop offset=".2" stop-color="#fff3d4"/><stop offset="1" stop-color="#fee094"/></linearGradient><linearGradient id="f" x1="0%" x2="100%" y1="0%" y2="100%"><stop offset=".2" stop-color="#efc748"/><stop offset="1" stop-color="#de9f32"/></linearGradient><linearGradient id="g" x1="0%" x2="100%" y1="100%" y2="0%"><stop offset="0" stop-color="#f7d589"/><stop offset="1" stop-color="#f5cf7f"/></linearGradient><linearGradient id="h" x1="0%" x2="100%" y1="0%" y2="100%"><stop offset="0" stop-color="#fef8e1"/><stop offset="1" stop-color="#fef8e1" stop-opacity="0"/></linearGradient><linearGradient id="i" x1="0%" x2="100%" y1="0%" y2="100%"><stop offset="0" stop-color="#fef8e1" stop-opacity="0"/><stop offset="1" stop-color="#fef8e1"/></linearGradient><linearGradient id="j" x1="0%" x2="100%" y1="0%" y2="100%"><stop offset="0" stop-color="#6ec461"/><stop offset="1" stop-color="#327a2f"/></linearGradient><linearGradient id="k" x1="0%" x2="100%" y1="0%" y2="100%"><stop offset="0" stop-color="#e2f3c0"/><stop offset="1" stop-color="#bcdaa0"/></linearGradient><radialGradient id="l" cx="50%" cy="30%" r="50%"><stop offset="0" stop-color="#fff" stop-opacity=".6"/><stop offset="1" stop-color="#fff" stop-opacity="0"/></radialGradient><linearGradient id="m" x1="0%" x2="100%" y1="0%" y2="100%"><stop offset="0" stop-color="#6ddb77"/><stop offset="1" stop-color="#80c079"/></linearGradient><mask id="n"><path d="m-8-8h16v16h-16z"/><circle fill="#fff" r="6.4"/></mask><filter id="o"><feGaussianBlur in="SourceGraphic" stdDeviation="1"/></filter><filter id="p"><feGaussianBlur in="SourceGraphic" stdDeviation=".25"/></filter><path id="q" d="m-2 6c1-2 0-3-1-3-3 0 0-3 0-3 2-2 2-3 1-4s-1 0-2-1h-3v14m7 1v1h1"/><path id="r" d="m4.5 5c-.5-1-.5-2-1-2.5-3 0-4-4 1.5-4 2 0 2-1.5 0-1.5-.5 0-3.5 0-3.5 2 0 .5-1-.5 0-1.75 1-.5 3-3 2-3h4v10m-19.5-4.25h-1v1"/></defs><g transform="translate(8 8)"><path d="m0-8-8 4v8l8 4z" fill="url(#a)"/><path d="m0-8 8 4v8l-8 4z" fill="url(#b)"/><path d="m0-7-7 3.5v7l7 3.5z" fill="url(#c)"/><path d="m0-7 7 3.5v7l-7 3.5z" fill="url(#d)"/><path d="m-6-2.5v5.5l6 3v-5.5" fill="url(#e)"/><path d="m6-2.5v5.5l-6 3v-5.5" fill="url(#f)"/><path d="m-6-3 6 3 6-3-6-3z" fill="url(#g)"/><path d="m0 0v-3.5h6.5" fill="url(#h)"/><path d="m-6-3 6-1v-2" fill="url(#i)"/><path d="m-6-3h5l1 3v-4-2l1 2.5h-1v-.5" fill="#765219" opacity=".5"/><g transform="translate(4 4)"><circle fill="url(#j)" r="4"/><circle fill="url(#k)" r="3"/><g mask="url(#n)" transform="scale(.4)"><circle fill="#5eb0d3" r="7"/><use fill="#206aa2" filter="url(#o)" xlink:href="#q"/><use fill="#8adcbf" filter="url(#p)" xlink:href="#q"/><use fill="url(#m)" xlink:href="#q"/><use fill="#206aa2" filter="url(#o)" xlink:href="#r"/><use fill="#8adcbf" filter="url(#p)" xlink:href="#r"/><use fill="url(#m)" xlink:href="#r"/><path d="m-8-8h16v16h-16z" fill="url(#l)"/></g></g></g></svg>