<svg height="16" width="16" xmlns="http://www.w3.org/2000/svg" xmlns:xlink="http://www.w3.org/1999/xlink"><linearGradient id="a" x1="0%" x2="100%" y1="0%" y2="100%"><stop offset="0" stop-color="#d9b74f"/><stop offset="1" stop-color="#c88e2c"/></linearGradient><linearGradient id="b" x1="0%" x2="100%" y1="0%" y2="100%"><stop offset="0" stop-color="#d7b04a"/><stop offset="1" stop-color="#c58726"/></linearGradient><linearGradient id="c" x1="0%" x2="100%" y1="0%" y2="100%"><stop offset="0" stop-color="#fef8e1"/><stop offset="1" stop-color="#e8e8e8"/></linearGradient><linearGradient id="d" x1="0%" x2="100%" y1="0%" y2="100%"><stop offset="0" stop-color="#f7e4b2"/><stop offset="1" stop-color="#ecc483"/></linearGradient><linearGradient id="e" x1="0%" x2="100%" y1="0%" y2="100%"><stop offset=".2" stop-color="#fff3d4"/><stop offset="1" stop-color="#fee094"/></linearGradient><linearGradient id="f" x1="0%" x2="100%" y1="0%" y2="100%"><stop offset=".2" stop-color="#efc748"/><stop offset="1" stop-color="#de9f32"/></linearGradient><linearGradient id="g" x1="0%" x2="100%" y1="100%" y2="0%"><stop offset="0" stop-color="#f7d589"/><stop offset="1" stop-color="#f5cf7f"/></linearGradient><linearGradient id="h" x1="0%" x2="100%" y1="0%" y2="100%"><stop offset="0" stop-color="#fef8e1"/><stop offset="1" stop-color="#fef8e1" stop-opacity="0"/></linearGradient><linearGradient id="i" x1="0%" x2="100%" y1="0%" y2="100%"><stop offset="0" stop-color="#fef8e1" stop-opacity="0"/><stop offset="1" stop-color="#fef8e1"/></linearGradient><linearGradient id="j" x1="0%" x2="100%" y1="0%" y2="100%"><stop offset="0" stop-color="#6fa53d"/><stop offset="1" stop-color="#1e7b03"/></linearGradient><linearGradient id="k" x1="0%" x2="100%" y1="0%" y2="100%"><stop offset="0" stop-color="#b0ce96"/><stop offset="1" stop-color="#96c180"/></linearGradient><g transform="translate(8 8)"><path d="m0-8-8 4v8l8 4z" fill="url(#a)"/><path d="m0-8 8 4v8l-8 4z" fill="url(#b)"/><path d="m0-7-7 3.5v7l7 3.5z" fill="url(#c)"/><path d="m0-7 7 3.5v7l-7 3.5z" fill="url(#d)"/><path d="m-6-2.5v5.5l6 3v-5.5" fill="url(#e)"/><path d="m6-2.5v5.5l-6 3v-5.5" fill="url(#f)"/><path d="m-6-3 6 3 6-3-6-3z" fill="url(#g)"/><path d="m0 0v-3.5h6.5" fill="url(#h)"/><path d="m-6-3 6-1v-2" fill="url(#i)"/><path d="m-6-3h5l1 3v-4-2l1 2.5h-1v-.5" fill="#765219" opacity=".5"/><g transform="translate(3 3)"><path d="m-1-2v-2h1l4.5 4.5-4.5 4.5h-1v-2h-4v-5z" fill="url(#j)"/><path d="m0-1v-1.5l3 3-3 3v-1.5h-4v-3z" fill="url(#k)"/><path d="m.5 0v-.5l1 1-1 1v-.5h-3.5v-1z" fill="#8eba6f"/></g></g></svg>