<svg height="16" width="16" xmlns="http://www.w3.org/2000/svg" xmlns:xlink="http://www.w3.org/1999/xlink"><linearGradient id="a" x1="100%" x2="0%" y1="0%" y2="100%"><stop offset="0" stop-color="#a0bedc"/><stop offset=".1" stop-color="#b3d2f1"/><stop offset=".5" stop-color="#d5e5fe"/></linearGradient><linearGradient id="b" x1="0%" x2="100%" y1="100%" y2="0%"><stop offset="0" stop-color="#cde6fc"/><stop offset="1" stop-color="#7db2e2"/></linearGradient><linearGradient id="c" x1="0%" x2="100%" y1="0%" y2="100%"><stop offset="0" stop-color="#4f8cc8"/><stop offset="1" stop-color="#2e62b7"/></linearGradient><linearGradient id="d" x1="0%" x2="100%" y1="100%" y2="0%"><stop offset="0" stop-color="#68bffd"/><stop offset="1" stop-color="#4fb2f7"/></linearGradient><linearGradient id="e" x1="0%" x2="100%" y1="100%" y2="0%"><stop offset="0" stop-color="#a0d8ff"/><stop offset="1" stop-color="#93d4ff"/></linearGradient><linearGradient id="f" x1="100%" x2="0%" y1="0%" y2="100%"><stop offset="0" stop-color="#fff"/><stop offset="1" stop-color="#eaf1f8"/></linearGradient><linearGradient id="g" x1="0%" x2="100%" y1="0%" y2="0%"><stop offset="0" stop-color="#858585"/><stop offset="1" stop-color="#4a4a4a"/></linearGradient><linearGradient id="h" x1="0%" x2="100%" y1="0%" y2="0%"><stop offset="0" stop-color="#ddd"/><stop offset="1" stop-color="#aeaeae"/></linearGradient><radialGradient id="i" cx="50%" cy="0%" r="70%"><stop offset="0" stop-color="#929292"/><stop offset="1" stop-color="#414141"/></radialGradient><radialGradient id="j" cx="50%" cy="50%" r="70%"><stop offset="0" stop-color="#cecece"/><stop offset="1" stop-color="#bdbdbd"/></radialGradient><g transform="translate(8 8)"><path d="m0-8h-6a1 1 0 0 0 -1 1v14a1 1 0 0 0 1 1h12a1 1 0 0 0 1-1v-11.5l-3.5-3.5h-4.5z" fill="url(#c)"/><path d="m0-7h-6v14h12v-11l-3-3z" fill="url(#f)"/><path d="m0-6h-5v9h10v-7l-2-2h-2z" fill="url(#a)"/><path d="m2-7h1l3 3v1h-4z" fill="#fff"/><path d="m3-7h.1l3 3h-3.1z" fill="url(#b)"/><path d="m-5 3h10v3h-10z" fill="url(#d)"/><path d="m-4 4h8v1h-8z" fill="url(#e)"/><g transform="translate(1.5 4)"><g id="k"><path d="m-1.5-3h-1.5a3.5 3.5 0 0 0 0 7h1.5a1.5 1.5 0 0 0 0-3h-2a.5.5 0 0 1 0-1h2a1.5 1.5 0 0 0 0-3z" fill="url(#g)"/><path d="m-1.5-2h-1.5a2.5 2.5 0 0 0 0 5h1.5a.5.5 0 0 0 0-1h-1.5a1.5 1.5 0 0 1 0-3h1.5a.5.5 0 0 0 0-1z" fill="url(#h)"/></g><use transform="matrix(-1 0 0 -1 0 1)" xlink:href="#k"/><path d="m-3.25-1h6v3h-6z" fill="url(#i)"/><path d="m-2.25 0h4v1h-4z" fill="url(#j)"/></g></g></svg>