<svg height="16" width="16" xmlns="http://www.w3.org/2000/svg" xmlns:xlink="http://www.w3.org/1999/xlink"><linearGradient id="a" x1="100%" x2="0%" y1="0%" y2="100%"><stop offset="0" stop-color="#a0bedc"/><stop offset=".1" stop-color="#b3d2f1"/><stop offset=".5" stop-color="#d5e5fe"/></linearGradient><linearGradient id="b" x1="0%" x2="100%" y1="100%" y2="0%"><stop offset="0" stop-color="#cde6fc"/><stop offset="1" stop-color="#7db2e2"/></linearGradient><linearGradient id="c" x1="0%" x2="100%" y1="0%" y2="100%"><stop offset="0" stop-color="#4f8cc8"/><stop offset="1" stop-color="#2e62b7"/></linearGradient><linearGradient id="d" x1="0%" x2="100%" y1="100%" y2="0%"><stop offset="0" stop-color="#68bffd"/><stop offset="1" stop-color="#4fb2f7"/></linearGradient><linearGradient id="e" x1="0%" x2="100%" y1="100%" y2="0%"><stop offset="0" stop-color="#a0d8ff"/><stop offset="1" stop-color="#93d4ff"/></linearGradient><linearGradient id="f" x1="100%" x2="0%" y1="0%" y2="100%"><stop offset="0" stop-color="#fff"/><stop offset="1" stop-color="#eaf1f8"/></linearGradient><linearGradient id="g" x1="0%" x2="100%" y1="0%" y2="0%"><stop offset="0" stop-color="#e3b044"/><stop offset="1" stop-color="#d67d29"/></linearGradient><linearGradient id="h" x1="0%" x2="100%" y1="0%" y2="0%"><stop offset="0" stop-color="#f9eea9"/><stop offset="1" stop-color="#f5d855"/></linearGradient><linearGradient id="i"><stop offset="0" stop-color="#eec528" stop-opacity="0"/><stop offset="1" stop-color="#eec528"/></linearGradient><linearGradient id="j" x1="0%" x2="0%" xlink:href="#i" y1="0%" y2="100%"/><linearGradient id="k" x1="0%" x2="100%" xlink:href="#i" y1="0%" y2="100%"/><g transform="translate(8 8)"><path d="m0-8h-6a1 1 0 0 0 -1 1v14a1 1 0 0 0 1 1h12a1 1 0 0 0 1-1v-11.5l-3.5-3.5h-4.5z" fill="url(#c)"/><path d="m0-7h-6v14h12v-11l-3-3z" fill="url(#f)"/><path d="m0-6h-5v9h10v-7l-2-2h-2z" fill="url(#a)"/><path d="m2-7h1l3 3v1h-4z" fill="#fff"/><path d="m3-7h.1l3 3h-3.1z" fill="url(#b)"/><path d="m-5 3h10v3h-10z" fill="url(#d)"/><path d="m-4 4h8v1h-8z" fill="url(#e)"/><g transform="matrix(.625 0 0 .625 2 3)"><path d="m-8 8v-6h2v-2h3l1-1a3 3 0 0 1 -1-3.5l3-3a3 3 0 0 1 3.5 0l3 3a3 3 0 0 1 1 3.5l-3 3a3 3 0 0 1 -3 0l-6 6z" fill="url(#g)"/><path d="m-7 7v-4h2v-2h2.5l3-3 1.8 1.8-7.2 7.2z" fill="url(#h)"/><path d="m-1.5-2a3 3 0 0 1 -1-3.5l3-3a3 3 0 0 1 3.5 0l3.3 3.3a3 3 0 0 1 1 3.5l-3 3a3 3 0 0 1 -3 0z" fill="url(#h)" transform="scale(.8)"/><path d="m-.4-3.2a3 3 0 0 1 -1-3.5l3-3a3 3 0 0 1 3.5 0l3.3 3.3a3 3 0 0 1 1 3.5l-3 3a3 3 0 0 1 -3 0z" fill="url(#k)" transform="scale(.6)"/><path d="m-6 6v-1l6-6 1 1-6 6z" fill="url(#j)"/><path d="m0 0h2v1h-2z" fill="url(#g)" transform="matrix(.70710678 .70710678 -.70710678 .70710678 3 -5)"/></g></g></svg>