<svg height="16" width="16" xmlns="http://www.w3.org/2000/svg" xmlns:xlink="http://www.w3.org/1999/xlink"><linearGradient id="a" x1="100%" x2="0%" y1="0%" y2="100%"><stop offset="0" stop-color="#a0bedc"/><stop offset=".1" stop-color="#b3d2f1"/><stop offset=".5" stop-color="#d5e5fe"/></linearGradient><linearGradient id="b" x1="0%" x2="100%" y1="100%" y2="0%"><stop offset="0" stop-color="#cde6fc"/><stop offset="1" stop-color="#7db2e2"/></linearGradient><linearGradient id="c" x1="0%" x2="100%" y1="0%" y2="100%"><stop offset="0" stop-color="#4f8cc8"/><stop offset="1" stop-color="#2e62b7"/></linearGradient><linearGradient id="d" x1="0%" x2="100%" y1="100%" y2="0%"><stop offset="0" stop-color="#68bffd"/><stop offset="1" stop-color="#4fb2f7"/></linearGradient><linearGradient id="e" x1="0%" x2="100%" y1="100%" y2="0%"><stop offset="0" stop-color="#a0d8ff"/><stop offset="1" stop-color="#93d4ff"/></linearGradient><linearGradient id="f" x1="100%" x2="0%" y1="0%" y2="100%"><stop offset="0" stop-color="#fff"/><stop offset="1" stop-color="#eaf1f8"/></linearGradient><linearGradient id="g" x1="0%" x2="0%" y1="0%" y2="100%"><stop offset="0" stop-color="#6e97d4"/><stop offset="1" stop-color="#5884c3"/></linearGradient><linearGradient id="h" x1="0%" x2="100%" y1="0%" y2="100%"><stop offset="0" stop-color="#b0cdf3"/><stop offset="1" stop-color="#85a2dd"/></linearGradient><linearGradient id="i" x1="0%" x2="100%" y1="0%" y2="0%"><stop offset="0" stop-color="#a8d782"/><stop offset="1" stop-color="#d7f4a2"/></linearGradient><g transform="translate(8 8)"><path d="m0-8h-6a1 1 0 0 0 -1 1v14a1 1 0 0 0 1 1h12a1 1 0 0 0 1-1v-11.5l-3.5-3.5h-4.5z" fill="url(#c)"/><path d="m0-7h-6v14h12v-11l-3-3z" fill="url(#f)"/><path d="m0-6h-5v9h10v-7l-2-2h-2z" fill="url(#a)"/><path d="m2-7h1l3 3v1h-4z" fill="#fff"/><path d="m3-7h.1l3 3h-3.1z" fill="url(#b)"/><path d="m-5 3h10v3h-10z" fill="url(#d)"/><path d="m-4 4h8v1h-8z" fill="url(#e)"/><g transform="translate(3 3)"><path d="m0-5h-5a1 1 0 0 0 -1 1v8a1 1 0 0 0 1 1h8a1 1 0 0 0 1-1v-7l-2-2z" fill="url(#g)"/><path d="m-5-4h8v8h-8z" fill="url(#h)"/><path d="m-4-4h6v3h-6z" fill="#fff"/><path d="m-3-4h1v2h-1z" fill="url(#h)"/><path d="m-4 1h6v3h-6z" fill="#fff"/><path id="j" d="m-3 2h2v2h-2z" fill="url(#i)"/><use transform="matrix(-1 0 0 -1 -2 6)" xlink:href="#j"/><path d="m-6-3h10v6h-10z" opacity=".05"/></g></g></svg>