<svg height="16" width="16" xmlns="http://www.w3.org/2000/svg" xmlns:xlink="http://www.w3.org/1999/xlink"><linearGradient id="a" x1="0%" x2="0%" y1="0%" y2="100%"><stop offset="0" stop-color="#e4bf7e"/><stop offset=".5" stop-color="#deb16b"/><stop offset="1" stop-color="#d19f62"/></linearGradient><linearGradient id="b" x1="0%" x2="0%" y1="0%" y2="100%"><stop offset="0" stop-color="#deb269"/><stop offset=".5" stop-color="#d7a053"/><stop offset="1" stop-color="#cd8743"/></linearGradient><linearGradient id="c" x1="0%" x2="0%" y1="0%" y2="100%"><stop offset="0" stop-color="#f3db80"/><stop offset="1" stop-color="#f0d475"/></linearGradient><linearGradient id="d" x1="100%" x2="0%" y1="0%" y2="100%"><stop offset="0" stop-color="#4f8cc8"/><stop offset="1" stop-color="#2e62b7"/></linearGradient><linearGradient id="e" x1="100%" x2="0%" y1="0%" y2="100%"><stop offset="0" stop-color="#fff"/><stop offset="1" stop-color="#eaf1f8"/></linearGradient><linearGradient id="f" x1="100%" x2="0%" y1="0%" y2="100%"><stop offset="0" stop-color="#a0bedc"/><stop offset=".1" stop-color="#b3d2f1"/><stop offset=".5" stop-color="#d5e5fe"/></linearGradient><g transform="translate(8 8)"><path d="m-8-5a2 2 0 0 1 2-2h1v-1h6v1h1a2 2 0 0 1 2 2v10a2 2 0 0 1 -2 2h-8a2 2 0 0 1 -2-2" fill="#986320"/><path d="m-7-6h10v12h-10z" fill="url(#a)"/><path d="m-6-5h8v10h-8z" fill="url(#b)"/><path d="m-5-6h6v2h-6z" fill="#df9d4e"/><path d="m-4-7h4v2h-4z" fill="#fdeeb5"/><path d="m-3-7h2v2h-2z" fill="url(#c)"/><g transform="translate(1 4)"><path d="m0-8h-2a1 1 0 0 0 -1 1v10a1 1 0 0 0 1 1h8a1 1 0 0 0 1-1v-8.5l-2.5-2.5z" fill="url(#d)"/><path d="m0-7h-2v10h8v-8l-2-2h-3z" fill="url(#e)"/><path d="m0-6h-1v8h6v-6.5l-1.5-1.5h-2z" fill="url(#f)"/><path d="m3-7h1l2 2v1h-3z" fill="#fff"/></g></g></svg>