<svg height="16" width="16" xmlns="http://www.w3.org/2000/svg" xmlns:xlink="http://www.w3.org/1999/xlink"><linearGradient id="a" x1="100%" x2="0%" y1="0%" y2="100%"><stop offset="0" stop-color="#a0bedc"/><stop offset=".1" stop-color="#b3d2f1"/><stop offset=".5" stop-color="#d5e5fe"/></linearGradient><linearGradient id="b" x1="0%" x2="100%" y1="100%" y2="0%"><stop offset="0" stop-color="#cde6fc"/><stop offset="1" stop-color="#7db2e2"/></linearGradient><linearGradient id="c" x1="0%" x2="100%" y1="0%" y2="100%"><stop offset="0" stop-color="#4f8cc8"/><stop offset="1" stop-color="#2e62b7"/></linearGradient><linearGradient id="d" x1="0%" x2="100%" y1="100%" y2="0%"><stop offset="0" stop-color="#68bffd"/><stop offset="1" stop-color="#4fb2f7"/></linearGradient><linearGradient id="e" x1="0%" x2="100%" y1="100%" y2="0%"><stop offset="0" stop-color="#a0d8ff"/><stop offset="1" stop-color="#93d4ff"/></linearGradient><linearGradient id="f" x1="100%" x2="0%" y1="0%" y2="100%"><stop offset="0" stop-color="#fff"/><stop offset="1" stop-color="#eaf1f8"/></linearGradient><linearGradient id="g" x1="0%" x2="100%" y1="0%" y2="0%"><stop offset="0" stop-color="#f7e1c9"/><stop offset="1" stop-color="#f4cfa5"/></linearGradient><linearGradient id="h" x1="100%" x2="0%" y1="0%" y2="100%"><stop offset="0" stop-color="#ca9350"/><stop offset=".2" stop-color="#ca9350" stop-opacity=".5"/><stop offset=".3" stop-color="#ca9350" stop-opacity="0"/><stop offset=".55" stop-color="#936d1e" stop-opacity="0"/><stop offset=".65" stop-color="#936d1e" stop-opacity=".3"/><stop offset=".8" stop-color="#936d1e" stop-opacity=".9"/><stop offset=".92" stop-color="#936d1e"/><stop offset=".94" stop-color="#594212"/></linearGradient><linearGradient id="i" x1="37%" x2="63%" y1="37%" y2="63%"><stop offset="0" stop-color="#e4ba2f"/><stop offset="1" stop-color="#d98f3b"/></linearGradient><linearGradient id="j" x1="100%" x2="0%" y1="0%" y2="100%"><stop offset="0" stop-color="#fae7d1"/><stop offset=".75" stop-color="#fae7d1" stop-opacity=".9"/><stop offset="1" stop-color="#fae7d1" stop-opacity="0"/></linearGradient><linearGradient id="k" x1="37%" x2="63%" y1="37%" y2="63%"><stop offset="0" stop-color="#f8edc3"/><stop offset=".1" stop-color="#fcf4b3"/><stop offset=".45" stop-color="#f4d644"/><stop offset=".55" stop-color="#f4d644"/><stop offset=".9" stop-color="#fcf4b3"/><stop offset="1" stop-color="#faee8e"/></linearGradient><linearGradient id="l" x1="0%" x2="100%" y1="0%" y2="100%"><stop offset="0" stop-color="#e07500" stop-opacity="0"/><stop offset=".4" stop-color="#e07500" stop-opacity=".2"/><stop offset=".5" stop-color="#e07500" stop-opacity=".45"/><stop offset=".6" stop-color="#e07500" stop-opacity=".4"/><stop offset="1" stop-color="#e07500" stop-opacity="0"/></linearGradient><g transform="translate(8 8)"><path d="m0-8h-6a1 1 0 0 0 -1 1v14a1 1 0 0 0 1 1h12a1 1 0 0 0 1-1v-11.5l-3.5-3.5h-4.5z" fill="url(#c)"/><path d="m0-7h-6v14h12v-11l-3-3z" fill="url(#f)"/><path d="m0-6h-5v9h10v-7l-2-2h-2z" fill="url(#a)"/><path d="m2-7h1l3 3v1h-4z" fill="#fff"/><path d="m3-7h.1l3 3h-3.1z" fill="url(#b)"/><path d="m-5 3h10v3h-10z" fill="url(#d)"/><path d="m-4 4h8v1h-8z" fill="url(#e)"/><g transform="translate(2 -1)"><path d="m2-5-8 8v3h3l8-8a2 1.25 45 0 0 -3-3" fill="url(#i)"/><path d="m2-5-8 8v3h3l8-8a2 1.25 45 0 0 -3-3" fill="url(#h)"/><ellipse fill="url(#g)" rx="1.25" ry=".75" transform="matrix(.70710678 .70710678 -.70710678 .70710678 3.5 -3.5)"/><path d="m-5 5h2l1-1a1.41.75 45 0 1 -2-2l-1 1z" fill="url(#j)"/><path d="m-5 5h2l1-1a1.41.75 45 0 1 -2-2l-1 1z" fill="url(#l)"/><path d="m2-4-5.5 5.5a1.41.75 45 0 0 2 2l5.5-5.5a1.41.75 45 0 1 -2-2" fill="url(#k)"/></g></g></svg>