<svg height="16" width="16" xmlns="http://www.w3.org/2000/svg" xmlns:xlink="http://www.w3.org/1999/xlink"><linearGradient id="a" x1="100%" x2="0%" y1="0%" y2="100%"><stop offset="0" stop-color="#cacaca"/><stop offset=".1" stop-color="#e9e9e9"/><stop offset=".5" stop-color="#fff"/></linearGradient><linearGradient id="b" x1="0%" x2="100%" y1="100%" y2="0%"><stop offset="0" stop-color="#fff"/><stop offset="1" stop-color="#c1c1c1"/></linearGradient><linearGradient id="c" x1="0%" x2="100%" y1="0%" y2="100%"><stop offset="0" stop-color="#bababa"/><stop offset="1" stop-color="#939393"/></linearGradient><linearGradient id="d" x1="0%" x2="100%" y1="0%" y2="100%"><stop offset="0" stop-color="#fff"/><stop offset=".5" stop-color="#fff"/><stop offset="1" stop-color="#dedede"/></linearGradient><linearGradient id="e" x1="0%" x2="100%" y1="0%" y2="0%"><stop offset="0" stop-color="#eaeaea"/><stop offset=".25" stop-color="#d9d9d9"/><stop offset=".5" stop-color="#e3e3e3"/><stop offset=".75" stop-color="#bfbfbf"/><stop offset="1" stop-color="#bfbfbf"/></linearGradient><g transform="translate(8 8)"><path d="m0-8h-6a1 1 0 0 0 -1 1v14a1 1 0 0 0 1 1h12a1 1 0 0 0 1-1v-11.5l-3.5-3.5h-4.5z" opacity=".21"/><path d="m0-7h-6v14h12v-11l-3-3z" fill="#fff"/><path d="m0-6h-5v12h10v-10l-2-2h-2z" fill="url(#a)"/><path d="m2-7h1l3 3v1h-4z" fill="#fff"/><path d="m3-7h.1l3 3h-3.1z" fill="url(#b)"/><g transform="translate(-6 1.5)"><path d="m6-5v7a6 6 0 0 1 -8 0v-7a6 6 0 0 1 8 0" fill="url(#c)"/><path d="m5-4.25v5.5a4 4 0 0 1 -6 0v-5.5a4 4 0 0 1 6 0" fill="url(#d)"/><path d="m4-3.75v5a3 3 0 0 1 -4 0v-5a3 3 0 0 0 4 0" fill="url(#e)"/><path d="m4-3.75v1a3 3 0 0 1 -4 0v-1a3 3 0 0 0 4 0" opacity=".1"/></g></g></svg>