<svg height="16" width="16" xmlns="http://www.w3.org/2000/svg" xmlns:xlink="http://www.w3.org/1999/xlink"><linearGradient id="a" x1="100%" x2="0%" y1="0%" y2="100%"><stop offset="0" stop-color="#a0bedc"/><stop offset=".1" stop-color="#b3d2f1"/><stop offset=".5" stop-color="#d5e5fe"/></linearGradient><linearGradient id="b" x1="0%" x2="100%" y1="100%" y2="0%"><stop offset="0" stop-color="#cde6fc"/><stop offset="1" stop-color="#7db2e2"/></linearGradient><linearGradient id="c" x1="0%" x2="100%" y1="0%" y2="100%"><stop offset="0" stop-color="#4f8cc8"/><stop offset="1" stop-color="#2e62b7"/></linearGradient><linearGradient id="d" x1="0%" x2="100%" y1="100%" y2="0%"><stop offset="0" stop-color="#68bffd"/><stop offset="1" stop-color="#4fb2f7"/></linearGradient><linearGradient id="e" x1="0%" x2="100%" y1="100%" y2="0%"><stop offset="0" stop-color="#a0d8ff"/><stop offset="1" stop-color="#93d4ff"/></linearGradient><linearGradient id="f" x1="100%" x2="0%" y1="0%" y2="100%"><stop offset="0" stop-color="#fff"/><stop offset="1" stop-color="#eaf1f8"/></linearGradient><linearGradient id="g" x1="0%" x2="100%" y1="0%" y2="100%"><stop offset="0" stop-color="#767a80"/><stop offset="1"/></linearGradient><linearGradient id="h" x1="0%" x2="100%" y1="0%" y2="0%"><stop offset="0" stop-color="#86929f"/><stop offset=".33" stop-color="#bac3cc"/><stop offset="1" stop-color="#8b98a6"/></linearGradient><linearGradient id="i" x1="0%" x2="100%" y1="0%" y2="0%"><stop offset="0" stop-opacity="0"/><stop offset=".2" stop-opacity=".7"/><stop offset="1"/></linearGradient><linearGradient id="j" x1="0%" x2="100%" y1="0%" y2="0%"><stop offset="0"/><stop offset=".8" stop-opacity=".7"/><stop offset="1" stop-opacity="0"/></linearGradient><linearGradient id="k" x1="0%" x2="100%" y1="0%" y2="0%"><stop offset="0" stop-color="#7b91aa"/><stop offset=".33" stop-color="#94a7ba"/><stop offset="1" stop-color="#7d8d9f"/></linearGradient><linearGradient id="l" x1="0%" x2="100%" y1="0%" y2="100%"><stop offset="0" stop-color="#7d8a96"/><stop offset="1" stop-color="#484f56"/></linearGradient><linearGradient id="m" x1="0%" x2="100%" y1="0%" y2="100%"><stop offset="0" stop-color="#93a0ae"/><stop offset="1" stop-color="#010101"/></linearGradient><linearGradient id="n" x1="0%" x2="100%" y1="0%" y2="100%"><stop offset="0" stop-color="#9aa0a6"/><stop offset="1" stop-color="#5e6770"/></linearGradient><g transform="translate(9 8)"><path d="m0-8h-6a1 1 0 0 0 -1 1v14a1 1 0 0 0 1 1h12a1 1 0 0 0 1-1v-11.5l-3.5-3.5h-4.5z" fill="url(#c)"/><path d="m0-7h-6v14h12v-11l-3-3z" fill="url(#f)"/><path d="m0-6h-5v9h10v-7l-2-2h-2z" fill="url(#a)"/><path d="m2-7h1l3 3v1h-4z" fill="#fff"/><path d="m3-7h.1l3 3h-3.1z" fill="url(#b)"/><path d="m-5 3h10v3h-10z" fill="url(#d)"/><path d="m-4 4h8v1h-8z" fill="url(#e)"/></g><g transform="translate(5 7)"><path d="m0 0h4v4.5a.5.5 0 0 1 -.5.5h-3a.5.5 0 0 1 -.5-.5zm-1 0h-4v4.5a.5.5 0 0 0 .5.5h3a.5.5 0 0 0 .5-.5z" fill="url(#g)"/><path d="m-1 0h1v1h-1z" fill="url(#g)"/><path d="m1 1h2v3h-2z" fill="url(#h)"/><path d="m-4 1h2v3h-2z" fill="url(#h)"/><path d="m-5 2h1v2h-1z" fill="url(#j)" opacity=".3"/><path d="m0 2h1v2h-1z" fill="url(#j)" opacity=".3"/><path d="m-3 2h2v2h-2z" fill="url(#i)" opacity=".3"/><path d="m2 2h2v2h-2z" fill="url(#i)" opacity=".3"/><path d="m0 0v-4h2v1c0 1 2 1 2 3" fill="url(#m)"/><path d="m1 0v-3h.5c0 1.5 1.5 1 1.5 3" fill="url(#n)"/><path d="m-1 0v-4h-2v1c0 1-2 1-2 3" fill="url(#l)"/><path d="m-2 0v-3h-.5c0 1.5-1.5 1-1.5 3" fill="url(#n)"/><path d="m-3-1h5v1h-5z" fill="url(#k)"/><path d="m-3-1h5v1h-5z" fill="none"/></g></svg>