<svg height="16" width="16" xmlns="http://www.w3.org/2000/svg" xmlns:xlink="http://www.w3.org/1999/xlink"><linearGradient id="a" x1="100%" x2="0%" y1="0%" y2="100%"><stop offset="0" stop-color="#4f8cc8"/><stop offset="1" stop-color="#2e62b7"/></linearGradient><linearGradient id="b" x1="100%" x2="0%" y1="0%" y2="100%"><stop offset="0" stop-color="#fff"/><stop offset="1" stop-color="#eaf1f8"/></linearGradient><linearGradient id="c" x1="100%" x2="0%" y1="0%" y2="100%"><stop offset="0" stop-color="#a0bedc"/><stop offset=".1" stop-color="#b3d2f1"/><stop offset=".5" stop-color="#d5e5fe"/></linearGradient><g transform="translate(8 8)"><use opacity=".75" transform="translate(-6 -4)" xlink:href="#d"/><g id="d" transform="translate(1 4)"><path d="m0-8h-2a1 1 0 0 0 -1 1v10a1 1 0 0 0 1 1h8a1 1 0 0 0 1-1v-8.5l-2.5-2.5z" fill="url(#a)"/><path d="m0-7h-2v10h8v-8l-2-2h-3z" fill="url(#b)"/><path d="m0-6h-1v8h6v-6.5l-1.5-1.5h-2z" fill="url(#c)"/><path d="m3-7h1l2 2v1h-3z" fill="#fff"/></g></g></svg>