<svg height="16" width="16" xmlns="http://www.w3.org/2000/svg" xmlns:xlink="http://www.w3.org/1999/xlink"><linearGradient id="a" x1="100%" x2="0%" y1="0%" y2="100%"><stop offset="0" stop-color="#cacaca"/><stop offset=".1" stop-color="#e9e9e9"/><stop offset=".5" stop-color="#fff"/></linearGradient><g transform="translate(8 8)"><use transform="translate(-6 -4)" xlink:href="#b"/><g id="b" transform="translate(1 4)"><path d="m0-8h-2a1 1 0 0 0 -1 1v10a1 1 0 0 0 1 1h8a1 1 0 0 0 1-1v-8.5l-2.5-2.5z" opacity=".21"/><path d="m0-7h-2v10h8v-8l-2-2h-3z" fill="#fff"/><path d="m0-6h-1v8h6v-6.5l-1.5-1.5h-2z" fill="url(#a)"/><path d="m3-7h1l2 2v1h-3z" fill="#fff"/></g></g></svg>