<svg height="16" width="16" xmlns="http://www.w3.org/2000/svg" xmlns:xlink="http://www.w3.org/1999/xlink"><linearGradient id="a" x1="100%" x2="0%" y1="0%" y2="100%"><stop offset="0" stop-color="#cacaca"/><stop offset=".1" stop-color="#e9e9e9"/><stop offset=".5" stop-color="#fff"/></linearGradient><linearGradient id="b" x1="0%" x2="100%" y1="100%" y2="0%"><stop offset="0" stop-color="#fff"/><stop offset="1" stop-color="#c1c1c1"/></linearGradient><linearGradient id="c" x1="100%" x2="0%" y1="0%" y2="100%"><stop offset="0" stop-color="#a5a5a5"/><stop offset="1" stop-color="#ddd"/></linearGradient><g transform="translate(8 8)"><path d="m0-8h-6a1 1 0 0 0 -1 1v14a1 1 0 0 0 1 1h12a1 1 0 0 0 1-1v-11.5l-3.5-3.5h-4.5z" opacity=".21"/><path d="m0-7h-6v14h12v-11l-3-3z" fill="#fff"/><path d="m0-6h-5v12h10v-10l-2-2h-2z" fill="url(#a)"/><path d="m2-7h1l3 3v1h-4z" fill="#fff"/><path d="m3-7h.1l3 3h-3.1z" fill="url(#b)"/><path d="m-4-4h6v1h-6m0 1h8v1h-8m0 1h8v1h-8m0 1h8v1h-8m0 1h8v1h-8" fill="url(#c)"/></g></svg>