<svg height="16" width="16" xmlns="http://www.w3.org/2000/svg" xmlns:xlink="http://www.w3.org/1999/xlink"><linearGradient id="a" x1="0%" x2="100%" y1="0%" y2="100%"><stop offset="0" stop-color="#9fb1cf"/><stop offset=".5" stop-color="#8ea6cd"/><stop offset="1" stop-color="#9cafce"/></linearGradient><linearGradient id="b" x1="100%" x2="0%" y1="0%" y2="100%"><stop offset="0" stop-color="#799ed7"/><stop offset="1" stop-color="#a0bce7"/></linearGradient><linearGradient id="c" x1="0%" x2="0%" y1="0%" y2="100%"><stop offset="0" stop-color="#7aaa4e"/><stop offset="1" stop-color="#63963c"/></linearGradient><radialGradient id="d" cx="60%" cy="60%" r="50%"><stop offset="0" stop-color="#7aba4f"/><stop offset=".2" stop-color="#7aba4f"/><stop offset=".5" stop-color="#87c158"/><stop offset="1" stop-color="#a1cb93"/></radialGradient><linearGradient id="e" x1="0%" x2="100%" y1="0%" y2="0%"><stop offset="0" stop-color="#9a7b35"/><stop offset=".35" stop-color="#d39f54"/><stop offset=".65" stop-color="#d39f54"/><stop offset="1" stop-color="#af863f"/></linearGradient><linearGradient id="f" x1="0%" x2="0%" y1="0%" y2="100%"><stop offset="0" stop-color="#6e97d4"/><stop offset="1" stop-color="#5884c3"/></linearGradient><linearGradient id="g" x1="0%" x2="100%" y1="0%" y2="100%"><stop offset="0" stop-color="#b0cdf3"/><stop offset="1" stop-color="#85a2dd"/></linearGradient><linearGradient id="h" x1="0%" x2="100%" y1="0%" y2="0%"><stop offset="0" stop-color="#a8d782"/><stop offset="1" stop-color="#d7f4a2"/></linearGradient><g transform="translate(7 7)"><rect fill="url(#a)" height="14" rx="1" width="14" x="-7" y="-7"/><path d="m-6-6h12v12h-12z" fill="#fff"/><path d="m-5-5h10v10h-10z" fill="url(#b)"/><path d="m-5 3h10v2h-10z" fill="#c2dcbf"/><path d="m-5 2h10v1h-10z" fill="url(#c)"/><path d="m-2 0h4v3a3 3 0 0 1 -4 0" fill="url(#e)"/><circle cy="-1.75" fill="url(#d)" r="3.25"/><g transform="translate(5 4)"><path d="m0-5h-5a1 1 0 0 0 -1 1v8a1 1 0 0 0 1 1h8a1 1 0 0 0 1-1v-7l-2-2z" fill="url(#f)"/><path d="m-5-4h8v8h-8z" fill="url(#g)"/><path d="m-4-4h6v3h-6z" fill="#fff"/><path d="m-3-4h1v2h-1z" fill="url(#g)"/><path d="m-4 1h6v3h-6z" fill="#fff"/><path id="i" d="m-3 2h2v2h-2z" fill="url(#h)"/><use transform="matrix(-1 0 0 -1 -2 6)" xlink:href="#i"/><path d="m-6-3h10v6h-10z" opacity=".05"/></g></g></svg>