<svg height="16" width="16" xmlns="http://www.w3.org/2000/svg" xmlns:xlink="http://www.w3.org/1999/xlink"><linearGradient id="a" x1="0%" x2="100%" y1="0%" y2="100%"><stop offset="0" stop-color="#83d079"/><stop offset="1" stop-color="#3a8a36"/></linearGradient><linearGradient id="b" x1="0%" x2="100%" y1="0%" y2="100%"><stop offset="0" stop-color="#a6d99b"/><stop offset="1" stop-color="#7cc376"/></linearGradient><linearGradient id="c" x1="0%" x2="100%" y1="0%" y2="100%"><stop offset="0" stop-color="#77c369"/><stop offset="1" stop-color="#59b54f"/></linearGradient><linearGradient id="d" x1="0%" x2="100%" y1="0%" y2="100%"><stop offset="0" stop-color="#6e9458"/><stop offset="1" stop-color="#376b19"/></linearGradient><linearGradient id="e" x1="0%" x2="100%" y1="0%" y2="100%"><stop offset="0" stop-color="#b1d390"/><stop offset="1" stop-color="#8fbc67"/></linearGradient><g transform="translate(8 8)"><path d="m-7 7h5v-1a1 1 0 1 1 2 0v1h4v-4h1a2 2 0 1 0 0-4h-1v-3h-3v-1a2 2 0 1 0 -4 0v1h-4v4h1a1 1 0 1 1 0 2h-1" fill="url(#a)"/><path d="m-6 6h3a2 2 0 1 1 4 0h2v-4h2a1 1 0 1 0 0-2h-2v-3h-3v-2a1 1 0 1 0 -2 0v2h-4v2a2 2 0 1 1 0 4" fill="url(#b)"/><path d="m-5 5h1a1.8 1.5 0 0 1 6 0v-7h-7a1.5 1.8 0 0 1 0 6" fill="url(#c)"/><g transform="translate(4.5 4.5)"><circle fill="url(#d)" r="3.5"/><circle fill="url(#e)" r="2.5"/><path d="m-.5-.5v-1h1v1h1v1h-1v1h-1v-1h-1v-1z" fill="#fff"/></g></g></svg>