<svg height="16" width="16" xmlns="http://www.w3.org/2000/svg" xmlns:xlink="http://www.w3.org/1999/xlink"><linearGradient id="a" x1="100%" x2="0%" y1="0%" y2="100%"><stop offset="0" stop-color="#457ec2"/><stop offset="1" stop-color="#6195c8"/></linearGradient><linearGradient id="b" x1="0%" x2="0%" y1="0%" y2="100%"><stop offset="0" stop-color="#ecf1f9"/><stop offset="1" stop-color="#f6f7f9"/></linearGradient><linearGradient id="c" x1="100%" x2="0%" y1="0%" y2="100%"><stop offset="0" stop-color="#457ec2"/><stop offset=".3" stop-color="#457ec2"/><stop offset="1" stop-color="#cde6fc"/></linearGradient><linearGradient id="d" x1="100%" x2="0%" y1="0%" y2="100%"><stop offset="0" stop-color="#b5d4f3"/><stop offset=".3" stop-color="#bbd6f5"/><stop offset="1" stop-color="#d8e8fe"/></linearGradient><linearGradient id="e" x1="0%" x2="100%" y1="0%" y2="0%"><stop offset="0" stop-color="#ecf1f9"/><stop offset="1" stop-color="#d8e8fe"/></linearGradient><linearGradient id="f" x1="0%" x2="100%" y1="0%" y2="100%"><stop offset="0" stop-color="#9a9a9a"/><stop offset="1" stop-color="#232323"/></linearGradient><linearGradient id="g" x1="0%" x2="0%" y1="0%" y2="100%"><stop offset="0" stop-color="#cbcbcb"/><stop offset=".25" stop-color="#fff"/><stop offset="1" stop-color="#d7d7d7"/></linearGradient><linearGradient id="h" x1="0%" x2="0%" y1="0%" y2="100%"><stop offset="0" stop-opacity=".05"/><stop offset=".2" stop-opacity=".1"/><stop offset="1" stop-opacity=".3"/></linearGradient><linearGradient id="i" x1="0%" x2="0%" y1="0%" y2="100%"><stop offset="0" stop-color="#7d7d7d"/><stop offset=".25" stop-color="#d8d8d8"/><stop offset="1" stop-color="#616161"/></linearGradient><linearGradient id="j" x1="0%" x2="0%" y1="0%" y2="100%"><stop offset="0" stop-color="#f2f2f2"/><stop offset="1" stop-color="#d7d7d7"/></linearGradient><linearGradient id="k" x1="0%" x2="0%" y1="0%" y2="100%"><stop offset="0" stop-color="#cbcbcb"/><stop offset="1" stop-color="#b9b9b9"/></linearGradient><g transform="translate(8 8)"><path d="m-8 0 2-3h12l2 3v6a1 1 0 0 1 -1 1h-14a1 1 0 0 1 -1-1z" fill="url(#f)"/><path d="m-7 0 1.33-2h11.33l1.33 2v6h-14v-6" fill="url(#g)"/><path d="m-4-8h6l3 3v12a1 1 0 0 1 -1 1h-8a1 1 0 0 1 -1-1v-14a1 1 0 0 1 1-1z" fill="url(#a)"/><path d="m-4-7h6l2 2v12h-8z" fill="url(#b)"/><path d="m2-7 2 2h-2z" fill="url(#c)"/><path d="m-3-6h4v2h2v3h-6" fill="url(#d)"/><path d="m-3 5h6v2h-6z" fill="url(#e)"/><path d="m-5-1h10v6h-10z" fill="url(#i)"/><path d="m-4 0h8v4h-8z" fill="url(#j)"/><path d="m-3 1h6v3h-6z" fill="url(#k)"/><path d="m-8 2h16v4h-16z" fill="url(#h)"/></g></svg>