<?xml version="1.0" encoding="UTF-8" standalone="no"?>
<svg
   xmlns:dc="http://purl.org/dc/elements/1.1/"
   xmlns:cc="http://creativecommons.org/ns#"
   xmlns:rdf="http://www.w3.org/1999/02/22-rdf-syntax-ns#"
   xmlns:svg="http://www.w3.org/2000/svg"
   xmlns="http://www.w3.org/2000/svg"
   id="svg27"
   version="1.1"
   height="16"
   width="16">
  <metadata
     id="metadata33">
    <rdf:RDF>
      <cc:Work
         rdf:about="">
        <dc:format>image/svg+xml</dc:format>
        <dc:type
           rdf:resource="http://purl.org/dc/dcmitype/StillImage" />
        <dc:title>Script</dc:title>
      </cc:Work>
    </rdf:RDF>
  </metadata>
  <defs
     id="defs31">
    <linearGradient
       gradientUnits="userSpaceOnUse"
       y2="8"
       x2="8"
       y1="-8"
       x1="-8"
       id="backing-3">
      <stop
         id="stop6-6"
         stop-color="#5face2"
         offset="0%" />
      <stop
         id="stop8-7"
         stop-color="#598fd4"
         offset="50%" />
      <stop
         id="stop10-5"
         stop-color="#335f94"
         offset="100%" />
    </linearGradient>
    <linearGradient
       gradientUnits="userSpaceOnUse"
       gradientTransform="scale(0.88345221,1.1319231)"
       y2="3.7546718"
       x2="-4.5276928"
       y1="-5.3007131"
       x1="4.5276928"
       id="center-3">
      <stop
         id="stop13-5"
         stop-color="#dfedfd"
         offset="0%" />
      <stop
         id="stop15-6"
         stop-color="#bddaf8"
         offset="100%" />
    </linearGradient>
  </defs>
  <title
     id="title2">Script</title>
  <desc
     id="desc4">Script</desc>
  <g
     transform="matrix(-0.7243482,0,0,0.7243482,5.7947853,5.842725)"
     id="icon">
    <defs
       id="defs18">
      <linearGradient
         gradientUnits="userSpaceOnUse"
         y2="8"
         x2="8"
         y1="-8"
         x1="-8"
         id="backing">
        <stop
           id="stop6"
           stop-color="#5face2"
           offset="0%" />
        <stop
           id="stop8"
           stop-color="#598fd4"
           offset="50%" />
        <stop
           id="stop10"
           stop-color="#335f94"
           offset="100%" />
      </linearGradient>
      <linearGradient
         gradientUnits="userSpaceOnUse"
         gradientTransform="scale(0.88345221,1.1319231)"
         y2="3.7546718"
         x2="-4.5276928"
         y1="-5.3007131"
         x1="4.5276928"
         id="center">
        <stop
           id="stop13"
           stop-color="#dfedfd"
           offset="0%" />
        <stop
           id="stop15"
           stop-color="#bddaf8"
           offset="100%" />
      </linearGradient>
    </defs>
    <path
       style="fill:url(#backing)"
       id="path20"
       d="m -3,-8 c 9,0 11,0 11,3 A 2,2 0 0 1 6,-3 C 6,6 5,8 3,8 -6,8 -8,8 -8,5 a 2,2 0 0 1 2,-2 c 0,-9 0,-11 3,-11" />
    <path
       style="fill:#ffffff"
       id="path22"
       d="m -4,-7 c 9,0 11,0 11,2 A 1,1 0 0 1 6,-4 C 6,-5.5 6,-5.5 5,-5.5 5,5 4,7 3,7 -5,7 -7,7 -7,5 h 9.25 v 0.25 a 0.5,0.5 0 0 0 1,0 V 4 l -8,-0.25 c 0,-9 0,-11 2,-11" />
    <path
       style="fill:url(#center)"
       id="path24"
       d="m -3,-6 c 7,0 7,0 7,2 C 4,4 3,4 3,4.25 L -4,4 c 0,-10 0,-10 2,-10" />
  </g>
  <g
     transform="matrix(-0.7243482,0,0,0.7243482,10.115223,10.199327)"
     id="icon-2">
    <defs
       id="defs18-9">
      <linearGradient
         gradientUnits="userSpaceOnUse"
         y2="8"
         x2="8"
         y1="-8"
         x1="-8"
         id="RESERVED_FOR_INKSCAPE_DUPLICATE_DEF_000000000">
        <stop
           id="stop858"
           stop-color="#5face2"
           offset="0%" />
        <stop
           id="stop860"
           stop-color="#598fd4"
           offset="50%" />
        <stop
           id="stop862"
           stop-color="#335f94"
           offset="100%" />
      </linearGradient>
      <linearGradient
         gradientUnits="userSpaceOnUse"
         gradientTransform="scale(0.88345221,1.1319231)"
         y2="3.7546718"
         x2="-4.5276928"
         y1="-5.3007131"
         x1="4.5276928"
         id="RESERVED_FOR_INKSCAPE_DUPLICATE_DEF_000000001">
        <stop
           id="stop866"
           stop-color="#dfedfd"
           offset="0%" />
        <stop
           id="stop868"
           stop-color="#bddaf8"
           offset="100%" />
      </linearGradient>
    </defs>
    <path
       style="fill:url(#backing-3)"
       id="path20-1"
       d="m -3,-8 c 9,0 11,0 11,3 A 2,2 0 0 1 6,-3 C 6,6 5,8 3,8 -6,8 -8,8 -8,5 a 2,2 0 0 1 2,-2 c 0,-9 0,-11 3,-11" />
    <path
       style="fill:#ffffff"
       id="path22-2"
       d="m -4,-7 c 9,0 11,0 11,2 A 1,1 0 0 1 6,-4 C 6,-5.5 6,-5.5 5,-5.5 5,5 4,7 3,7 -5,7 -7,7 -7,5 h 9.25 v 0.25 a 0.5,0.5 0 0 0 1,0 V 4 l -8,-0.25 c 0,-9 0,-11 2,-11" />
    <path
       style="fill:url(#center-3)"
       id="path24-7"
       d="m -3,-6 c 7,0 7,0 7,2 C 4,4 3,4 3,4.25 L -4,4 c 0,-10 0,-10 2,-10" />
  </g>
</svg>
