<svg height="16" width="16" xmlns="http://www.w3.org/2000/svg" xmlns:xlink="http://www.w3.org/1999/xlink"><linearGradient id="a" x1="0%" x2="100%" y1="0%" y2="100%"><stop offset="0" stop-color="#5face2"/><stop offset=".5" stop-color="#598fd4"/><stop offset="1" stop-color="#335f94"/></linearGradient><linearGradient id="b" x1="100%" x2="0%" y1="0%" y2="100%"><stop offset="0" stop-color="#dfedfd"/><stop offset="1" stop-color="#bddaf8"/></linearGradient><linearGradient id="c" x1="0%" x2="100%" y1="0%" y2="0%"><stop offset="0" stop-color="#858585"/><stop offset="1" stop-color="#4a4a4a"/></linearGradient><linearGradient id="d" x1="0%" x2="100%" y1="0%" y2="0%"><stop offset="0" stop-color="#ddd"/><stop offset="1" stop-color="#aeaeae"/></linearGradient><radialGradient id="e" cx="50%" cy="0%" r="70%"><stop offset="0" stop-color="#929292"/><stop offset="1" stop-color="#414141"/></radialGradient><radialGradient id="f" cx="50%" cy="50%" r="70%"><stop offset="0" stop-color="#cecece"/><stop offset="1" stop-color="#bdbdbd"/></radialGradient><g transform="translate(8 8)"><path d="m-3-8c9 0 11 0 11 3a2 2 0 0 1 -2 2c0 9-1 11-3 11-9 0-11 0-11-3a2 2 0 0 1 2-2c0-9 0-11 3-11" fill="url(#a)"/><path d="m-4-7c9 0 11 0 11 2a1 1 0 0 1 -1 1c0-1.5 0-1.5-1-1.5 0 10.5-1 12.5-2 12.5-8 0-10 0-10-2h9.25v.25a.5.5 0 0 0 1 0v-1.25l-8-.25c0-9 0-11 2-11" fill="#fff"/><path d="m-3-6c7 0 7 0 7 2 0 8-1 8-1 8.25l-7-.25c0-10 0-10 2-10" fill="url(#b)"/><g transform="translate(1.5 4)"><g id="g"><path d="m-1.5-3h-1.5a3.5 3.5 0 0 0 0 7h1.5a1.5 1.5 0 0 0 0-3h-2a.5.5 0 0 1 0-1h2a1.5 1.5 0 0 0 0-3z" fill="url(#c)"/><path d="m-1.5-2h-1.5a2.5 2.5 0 0 0 0 5h1.5a.5.5 0 0 0 0-1h-1.5a1.5 1.5 0 0 1 0-3h1.5a.5.5 0 0 0 0-1z" fill="url(#d)"/></g><use transform="matrix(-1 0 0 -1 0 1)" xlink:href="#g"/><path d="m-3.25-1h6v3h-6z" fill="url(#e)"/><path d="m-2.25 0h4v1h-4z" fill="url(#f)"/></g></g></svg>