<svg height="16" width="16" xmlns="http://www.w3.org/2000/svg" xmlns:xlink="http://www.w3.org/1999/xlink"><linearGradient id="a" x1="0%" x2="100%" y1="0%" y2="100%"><stop offset="0" stop-color="#5face2"/><stop offset=".5" stop-color="#598fd4"/><stop offset="1" stop-color="#335f94"/></linearGradient><linearGradient id="b" x1="100%" x2="0%" y1="0%" y2="100%"><stop offset="0" stop-color="#dfedfd"/><stop offset="1" stop-color="#bddaf8"/></linearGradient><linearGradient id="c" x1="0%" x2="100%" y1="0%" y2="0%"><stop offset="0" stop-color="#f7e1c9"/><stop offset="1" stop-color="#f4cfa5"/></linearGradient><linearGradient id="d" x1="100%" x2="0%" y1="0%" y2="100%"><stop offset="0" stop-color="#ca9350"/><stop offset=".2" stop-color="#ca9350" stop-opacity=".5"/><stop offset=".3" stop-color="#ca9350" stop-opacity="0"/><stop offset=".55" stop-color="#936d1e" stop-opacity="0"/><stop offset=".65" stop-color="#936d1e" stop-opacity=".3"/><stop offset=".8" stop-color="#936d1e" stop-opacity=".9"/><stop offset=".92" stop-color="#936d1e"/><stop offset=".94" stop-color="#594212"/></linearGradient><linearGradient id="e" x1="37%" x2="63%" y1="37%" y2="63%"><stop offset="0" stop-color="#e4ba2f"/><stop offset="1" stop-color="#d98f3b"/></linearGradient><linearGradient id="f" x1="100%" x2="0%" y1="0%" y2="100%"><stop offset="0" stop-color="#fae7d1"/><stop offset=".75" stop-color="#fae7d1" stop-opacity=".9"/><stop offset="1" stop-color="#fae7d1" stop-opacity="0"/></linearGradient><linearGradient id="g" x1="37%" x2="63%" y1="37%" y2="63%"><stop offset="0" stop-color="#f8edc3"/><stop offset=".1" stop-color="#fcf4b3"/><stop offset=".45" stop-color="#f4d644"/><stop offset=".55" stop-color="#f4d644"/><stop offset=".9" stop-color="#fcf4b3"/><stop offset="1" stop-color="#faee8e"/></linearGradient><linearGradient id="h" x1="0%" x2="100%" y1="0%" y2="100%"><stop offset="0" stop-color="#e07500" stop-opacity="0"/><stop offset=".4" stop-color="#e07500" stop-opacity=".2"/><stop offset=".5" stop-color="#e07500" stop-opacity=".45"/><stop offset=".6" stop-color="#e07500" stop-opacity=".4"/><stop offset="1" stop-color="#e07500" stop-opacity="0"/></linearGradient><g transform="translate(8 8)"><path d="m-3-8c9 0 11 0 11 3a2 2 0 0 1 -2 2c0 9-1 11-3 11-9 0-11 0-11-3a2 2 0 0 1 2-2c0-9 0-11 3-11" fill="url(#a)"/><path d="m-4-7c9 0 11 0 11 2a1 1 0 0 1 -1 1c0-1.5 0-1.5-1-1.5 0 10.5-1 12.5-2 12.5-8 0-10 0-10-2h9.25v.25a.5.5 0 0 0 1 0v-1.25l-8-.25c0-9 0-11 2-11" fill="#fff"/><path d="m-3-6c7 0 7 0 7 2 0 8-1 8-1 8.25l-7-.25c0-10 0-10 2-10" fill="url(#b)"/><g transform="translate(2 2)"><path d="m2-5-8 8v3h3l8-8a2 1.25 45 0 0 -3-3" fill="url(#e)"/><path d="m2-5-8 8v3h3l8-8a2 1.25 45 0 0 -3-3" fill="url(#d)"/><ellipse fill="url(#c)" rx="1.25" ry=".75" transform="matrix(.70710678 .70710678 -.70710678 .70710678 3.5 -3.5)"/><path d="m-5 5h2l1-1a1.41.75 45 0 1 -2-2l-1 1z" fill="url(#f)"/><path d="m-5 5h2l1-1a1.41.75 45 0 1 -2-2l-1 1z" fill="url(#h)"/><path d="m2-4-5.5 5.5a1.41.75 45 0 0 2 2l5.5-5.5a1.41.75 45 0 1 -2-2" fill="url(#g)"/></g></g></svg>