<svg height="16" width="16" xmlns="http://www.w3.org/2000/svg" xmlns:xlink="http://www.w3.org/1999/xlink"><linearGradient id="a" x1="0%" x2="100%" y1="0%" y2="100%"><stop offset="0" stop-color="#5face2"/><stop offset=".5" stop-color="#598fd4"/><stop offset="1" stop-color="#335f94"/></linearGradient><linearGradient id="b" x1="100%" x2="0%" y1="0%" y2="100%"><stop offset="0" stop-color="#dfedfd"/><stop offset="1" stop-color="#bddaf8"/></linearGradient><g transform="translate(8 8)"><path d="m-3-8c9 0 11 0 11 3a2 2 0 0 1 -2 2c0 9-1 11-3 11-9 0-11 0-11-3a2 2 0 0 1 2-2c0-9 0-11 3-11" fill="url(#a)"/><path d="m-4-7c9 0 11 0 11 2a1 1 0 0 1 -1 1c0-1.5 0-1.5-1-1.5 0 10.5-1 12.5-2 12.5-8 0-10 0-10-2h9.25v.25a.5.5 0 0 0 1 0v-1.25l-8-.25c0-9 0-11 2-11" fill="#fff"/><path d="m-3-6c7 0 7 0 7 2 0 8-1 8-1 8.25l-7-.25c0-10 0-10 2-10" fill="url(#b)"/></g></svg>