<?xml version="1.0" encoding="UTF-8" standalone="no"?>
<svg
   xmlns:dc="http://purl.org/dc/elements/1.1/"
   xmlns:cc="http://creativecommons.org/ns#"
   xmlns:rdf="http://www.w3.org/1999/02/22-rdf-syntax-ns#"
   xmlns:svg="http://www.w3.org/2000/svg"
   xmlns="http://www.w3.org/2000/svg"
   xmlns:sodipodi="http://sodipodi.sourceforge.net/DTD/sodipodi-0.dtd"
   xmlns:inkscape="http://www.inkscape.org/namespaces/inkscape"
   width="16"
   height="16"
   version="1.1"
   id="svg27"
   sodipodi:docname="script_copy.svg"
   inkscape:version="0.92.5 (2060ec1f9f, 2020-04-08)">
  <metadata
     id="metadata33">
    <rdf:RDF>
      <cc:Work
         rdf:about="">
        <dc:format>image/svg+xml</dc:format>
        <dc:type
           rdf:resource="http://purl.org/dc/dcmitype/StillImage" />
        <dc:title>Script</dc:title>
      </cc:Work>
    </rdf:RDF>
  </metadata>
  <defs
     id="defs31">
    <linearGradient
       id="backing-3"
       x1="-8"
       y1="-8"
       x2="8"
       y2="8"
       gradientUnits="userSpaceOnUse">
      <stop
         offset="0%"
         stop-color="#5face2"
         id="stop6-6" />
      <stop
         offset="50%"
         stop-color="#598fd4"
         id="stop8-7" />
      <stop
         offset="100%"
         stop-color="#335f94"
         id="stop10-5" />
    </linearGradient>
    <linearGradient
       id="center-3"
       x1="4.5276928"
       y1="-5.3007131"
       x2="-4.5276928"
       y2="3.7546718"
       gradientTransform="scale(0.88345221,1.1319231)"
       gradientUnits="userSpaceOnUse">
      <stop
         offset="0%"
         stop-color="#dfedfd"
         id="stop13-5" />
      <stop
         offset="100%"
         stop-color="#bddaf8"
         id="stop15-6" />
    </linearGradient>
  </defs>
  <sodipodi:namedview
     pagecolor="#ffffff"
     bordercolor="#666666"
     borderopacity="1"
     objecttolerance="10"
     gridtolerance="10"
     guidetolerance="10"
     inkscape:pageopacity="0"
     inkscape:pageshadow="2"
     inkscape:window-width="1920"
     inkscape:window-height="1052"
     id="namedview29"
     showgrid="false"
     inkscape:zoom="20.85965"
     inkscape:cx="2.4381271"
     inkscape:cy="7.5199501"
     inkscape:window-x="1366"
     inkscape:window-y="0"
     inkscape:window-maximized="1"
     inkscape:current-layer="svg27" />
  <title
     id="title2">Script</title>
  <desc
     id="desc4">Script</desc>
  <g
     id="icon"
     transform="matrix(-0.7243482,0,0,0.7243482,5.7947853,5.842725)">
    <defs
       id="defs18">
      <linearGradient
         id="backing"
         x1="-8"
         y1="-8"
         x2="8"
         y2="8"
         gradientUnits="userSpaceOnUse">
        <stop
           offset="0%"
           stop-color="#5face2"
           id="stop6" />
        <stop
           offset="50%"
           stop-color="#598fd4"
           id="stop8" />
        <stop
           offset="100%"
           stop-color="#335f94"
           id="stop10" />
      </linearGradient>
      <linearGradient
         id="center"
         x1="4.5276928"
         y1="-5.3007131"
         x2="-4.5276928"
         y2="3.7546718"
         gradientTransform="scale(0.88345221,1.1319231)"
         gradientUnits="userSpaceOnUse">
        <stop
           offset="0%"
           stop-color="#dfedfd"
           id="stop13" />
        <stop
           offset="100%"
           stop-color="#bddaf8"
           id="stop15" />
      </linearGradient>
    </defs>
    <path
       d="m -3,-8 c 9,0 11,0 11,3 A 2,2 0 0 1 6,-3 C 6,6 5,8 3,8 -6,8 -8,8 -8,5 a 2,2 0 0 1 2,-2 c 0,-9 0,-11 3,-11"
       id="path20"
       style="fill:url(#backing)"
       inkscape:connector-curvature="0" />
    <path
       d="m -4,-7 c 9,0 11,0 11,2 A 1,1 0 0 1 6,-4 C 6,-5.5 6,-5.5 5,-5.5 5,5 4,7 3,7 -5,7 -7,7 -7,5 h 9.25 v 0.25 a 0.5,0.5 0 0 0 1,0 V 4 l -8,-0.25 c 0,-9 0,-11 2,-11"
       id="path22"
       inkscape:connector-curvature="0"
       style="fill:#ffffff" />
    <path
       d="m -3,-6 c 7,0 7,0 7,2 C 4,4 3,4 3,4.25 L -4,4 c 0,-10 0,-10 2,-10"
       id="path24"
       style="fill:url(#center)"
       inkscape:connector-curvature="0" />
  </g>
  <g
     id="icon-2"
     transform="matrix(-0.7243482,0,0,0.7243482,10.115223,10.199327)">
    <defs
       id="defs18-9">
      <linearGradient
         id="RESERVED_FOR_INKSCAPE_DUPLICATE_DEF_000000000"
         x1="-8"
         y1="-8"
         x2="8"
         y2="8"
         gradientUnits="userSpaceOnUse">
        <stop
           offset="0%"
           stop-color="#5face2"
           id="stop858" />
        <stop
           offset="50%"
           stop-color="#598fd4"
           id="stop860" />
        <stop
           offset="100%"
           stop-color="#335f94"
           id="stop862" />
      </linearGradient>
      <linearGradient
         id="RESERVED_FOR_INKSCAPE_DUPLICATE_DEF_000000001"
         x1="4.5276928"
         y1="-5.3007131"
         x2="-4.5276928"
         y2="3.7546718"
         gradientTransform="scale(0.88345221,1.1319231)"
         gradientUnits="userSpaceOnUse">
        <stop
           offset="0%"
           stop-color="#dfedfd"
           id="stop866" />
        <stop
           offset="100%"
           stop-color="#bddaf8"
           id="stop868" />
      </linearGradient>
    </defs>
    <path
       d="m -3,-8 c 9,0 11,0 11,3 A 2,2 0 0 1 6,-3 C 6,6 5,8 3,8 -6,8 -8,8 -8,5 a 2,2 0 0 1 2,-2 c 0,-9 0,-11 3,-11"
       id="path20-1"
       style="fill:url(#backing-3)"
       inkscape:connector-curvature="0" />
    <path
       d="m -4,-7 c 9,0 11,0 11,2 A 1,1 0 0 1 6,-4 C 6,-5.5 6,-5.5 5,-5.5 5,5 4,7 3,7 -5,7 -7,7 -7,5 h 9.25 v 0.25 a 0.5,0.5 0 0 0 1,0 V 4 l -8,-0.25 c 0,-9 0,-11 2,-11"
       id="path22-2"
       inkscape:connector-curvature="0"
       style="fill:#ffffff" />
    <path
       d="m -3,-6 c 7,0 7,0 7,2 C 4,4 3,4 3,4.25 L -4,4 c 0,-10 0,-10 2,-10"
       id="path24-7"
       style="fill:url(#center-3)"
       inkscape:connector-curvature="0" />
  </g>
</svg>
