<svg height="16" width="16" xmlns="http://www.w3.org/2000/svg" xmlns:xlink="http://www.w3.org/1999/xlink"><linearGradient id="a" x1="0%" x2="100%" y1="0%" y2="100%"><stop offset="0" stop-color="#cbcbcb"/><stop offset=".5" stop-color="#b0b0b0"/><stop offset="1" stop-color="#636363"/></linearGradient><linearGradient id="b" x1="0%" x2="100%" y1="0%" y2="100%"><stop offset="0" stop-color="#e9e9e9"/><stop offset=".5" stop-color="#f0f0f0"/><stop offset="1" stop-color="#cdced3"/></linearGradient><linearGradient id="c" x1="0%" x2="100%" y1="0%" y2="0%"><stop offset="0" stop-color="#dfdfdf"/><stop offset=".4" stop-color="#d8d8d9"/><stop offset="1" stop-color="#b8b9c0"/></linearGradient><linearGradient id="d" x1="0%" x2="100%" y1="0%" y2="100%"><stop offset="0" stop-color="#c9cacf"/><stop offset="1" stop-color="#aeafb7"/></linearGradient><linearGradient id="e" x1="0%" x2="100%" y1="0%" y2="100%"><stop offset="0" stop-color="#979798"/><stop offset="1" stop-color="#8a8a8a"/></linearGradient><linearGradient id="f" x1="0%" x2="100%" y1="0%" y2="100%"><stop offset="0" stop-color="#a4c8a0"/><stop offset=".6" stop-color="#56a950"/><stop offset="1" stop-color="#379437"/></linearGradient><linearGradient id="g" x1="0%" x2="100%" y1="0%" y2="100%"><stop offset="0" stop-color="#6e9458"/><stop offset="1" stop-color="#376b19"/></linearGradient><linearGradient id="h" x1="0%" x2="100%" y1="0%" y2="100%"><stop offset="0" stop-color="#b1d390"/><stop offset="1" stop-color="#8fbc67"/></linearGradient><g transform="translate(7 8)"><path d="m5 0v6a1 1 0 0 1 -1 1h-5c-1 0-1 0-2-.5l-2-2c-1-1-1-1-1-1.5v-5c0-1 1-2 2-3 .5-.5 2-2 2-2h6a1 1 0 0 1 1 1" fill="url(#a)"/><path d="m4 0v6h-6l-3-3v-5.5l3-3.5h6" fill="url(#b)"/><path d="m3 0v5h-5l-2-2.5v-5l2-2.5h5" fill="url(#c)"/><path d="m-2-5h5v10h-5z" fill="url(#d)"/><path d="m-1-4h4v1h-4m0 1h4v1h-4" fill="url(#e)"/><path d="m1 0h2v2h-2z" fill="url(#f)"/><g transform="translate(4.5 4.5)"><circle fill="url(#g)" r="3.5"/><circle fill="url(#h)" r="2.5"/><path d="m-.5-.5v-1h1v1h1v1h-1v1h-1v-1h-1v-1z" fill="#fff"/></g></g></svg>