<svg height="16" width="16" xmlns="http://www.w3.org/2000/svg" xmlns:xlink="http://www.w3.org/1999/xlink"><linearGradient id="a" x1="0%" x2="100%" y1="0%" y2="100%"><stop offset="0" stop-color="#aaa"/><stop offset="1" stop-color="#999"/></linearGradient><linearGradient id="b" x1="0%" x2="100%" y1="0%" y2="100%"><stop offset="0" stop-color="#e4e4db"/><stop offset="1" stop-color="#f1f1ec"/></linearGradient><linearGradient id="c" x1="0%" x2="100%" y1="0%" y2="100%"><stop offset="0" stop-color="#c1c1c1"/><stop offset="1" stop-color="#d8d8d7"/></linearGradient><g transform="translate(8 8)"><path d="m-8 4h16v-1a1 1 0 0 0 -1-1v-4a2 2 0 0 0 -2-2h-10a2 2 0 0 0 -2 2v4a1 1 0 0 0 -1 1z" fill="url(#a)"/><path d="m-7 3h14a1 1 0 0 0 -1-1v-4a1 1 0 0 0 -1-1h-10a1 1 0 0 0 -1 1v4a1 1 0 0 0 -1 1z" fill="url(#b)"/><path d="m-5-2h10v4h-10z" fill="url(#c)" opacity=".9"/></g></svg>