<svg height="16" width="16" xmlns="http://www.w3.org/2000/svg" xmlns:xlink="http://www.w3.org/1999/xlink"><linearGradient id="a" x1="0%" x2="100%" y1="0%" y2="100%"><stop offset="0" stop-color="#a3c2ef"/><stop offset="1" stop-color="#4277bb"/></linearGradient><linearGradient id="b" x1="0%" x2="100%" y1="0%" y2="100%"><stop offset="0" stop-color="#f4f7fb"/><stop offset="1" stop-color="#d8e2f0"/></linearGradient><linearGradient id="c" x1="0%" x2="100%" y1="0%" y2="100%"><stop offset="0" stop-color="#a6c3e9"/><stop offset="1" stop-color="#b5cdea"/></linearGradient><linearGradient id="d" x1="0%" x2="100%" y1="0%" y2="100%"><stop offset="0" stop-color="#a5d59c"/><stop offset="1" stop-color="#7cbe76"/></linearGradient><linearGradient id="e" x1="0%" x2="100%" y1="0%" y2="100%"><stop offset="0" stop-color="#fe7874"/><stop offset="1" stop-color="#ea111c"/></linearGradient><linearGradient id="f" x1="0%" x2="100%" y1="0%" y2="0%"><stop offset="0" stop-color="#fdcec4"/><stop offset="1" stop-color="#f99993"/></linearGradient><g transform="translate(7 8)"><rect fill="url(#a)" height="14" rx="1" width="14" x="-7" y="-7"/><path d="m-6-6h12v12h-12z" fill="url(#b)"/><path d="m-5-5h10v10h-10z" fill="#fff"/><path d="m-5-3h10v8h-10z" fill="url(#c)"/><path d="m-4-2h1v1h-1m0 1h1v1h-1m-1 1h1v1h-1m1 1h1v1h-1m2-7h3v1h-3m0 1h3v1h-3m0 1h3v1h-3m0 1h3v1h-3m4-7h3v1h-3m0 1h3v1h-3m0 1h3v1h-3m0 1h3v1h-3" fill="#fff"/><path d="m-5-5h10v1h-10z" fill="url(#d)"/><g transform="translate(1)"><path d="m-7 1h9v3h-9z" fill="url(#e)"/><path d="m-6 2h7v1h-7z" fill="url(#f)"/><path d="m3 2h2v-2h.5l2.5 2.5-2.5 2.5h-.5v-2h-2" fill="url(#e)"/><path d="m4.5 2h2v1h-2z" fill="url(#f)" opacity=".5"/></g></g></svg>