<svg height="16" width="16" xmlns="http://www.w3.org/2000/svg" xmlns:xlink="http://www.w3.org/1999/xlink"><linearGradient id="a" x1="0%" x2="100%" y1="0%" y2="100%"><stop offset="0" stop-color="#a3c2ef"/><stop offset="1" stop-color="#4277bb"/></linearGradient><linearGradient id="b" x1="0%" x2="100%" y1="0%" y2="100%"><stop offset="0" stop-color="#f4f7fb"/><stop offset="1" stop-color="#d8e2f0"/></linearGradient><linearGradient id="c" x1="0%" x2="100%" y1="0%" y2="100%"><stop offset="0" stop-color="#a6c3e9"/><stop offset="1" stop-color="#b5cdea"/></linearGradient><linearGradient id="d" x1="0%" x2="100%" y1="0%" y2="100%"><stop offset="0" stop-color="#a5d59c"/><stop offset="1" stop-color="#7cbe76"/></linearGradient><linearGradient id="e" x1="0%" x2="100%" y1="0%" y2="100%"><stop offset="0" stop-color="#c4581e"/><stop offset="1" stop-color="#b84503"/></linearGradient><linearGradient id="f" x1="0%" x2="100%" y1="0%" y2="100%"><stop offset="0" stop-color="#fed6b8"/><stop offset="1" stop-color="#dd6401"/></linearGradient><g transform="translate(8 8)"><rect fill="url(#a)" height="14" rx="1" width="14" x="-7" y="-7"/><path d="m-6-6h12v12h-12z" fill="url(#b)"/><path d="m-5-5h10v10h-10z" fill="#fff"/><path d="m-5-3h10v8h-10z" fill="url(#c)"/><path d="m-4-2h1v1h-1m0 1h1v1h-1m0 1h1v1h-1m0 1h1v1h-1m2-7h3v1h-3m0 1h3v1h-3m0 1h3v1h-3m0 1h3v1h-3m4-7h3v1h-3m0 1h3v1h-3m0 1h3v1h-3m0 1h3v1h-3" fill="#fff"/><path d="m-5-5h10v1h-10z" fill="url(#d)"/><g transform="translate(4.5 4.5)"><circle fill="url(#e)" r="3.5"/><circle fill="url(#f)" r="2.5"/><path d="m-1.5-.5h3v1h-3z" fill="#fff"/></g></g></svg>