<svg height="16" width="16" xmlns="http://www.w3.org/2000/svg" xmlns:xlink="http://www.w3.org/1999/xlink"><linearGradient id="a" x1="0%" x2="100%" y1="0%" y2="100%"><stop offset="0" stop-color="#a3c2ef"/><stop offset="1" stop-color="#4277bb"/></linearGradient><linearGradient id="b" x1="0%" x2="100%" y1="0%" y2="100%"><stop offset="0" stop-color="#f4f7fb"/><stop offset="1" stop-color="#d8e2f0"/></linearGradient><linearGradient id="c" x1="0%" x2="100%" y1="0%" y2="100%"><stop offset="0" stop-color="#a6c3e9"/><stop offset="1" stop-color="#b5cdea"/></linearGradient><linearGradient id="d" x1="0%" x2="100%" y1="0%" y2="100%"><stop offset="0" stop-color="#a5d59c"/><stop offset="1" stop-color="#7cbe76"/></linearGradient><linearGradient id="e" x1="0%" x2="100%" y1="0%" y2="0%"><stop offset="0" stop-color="#e3b044"/><stop offset="1" stop-color="#d67d29"/></linearGradient><linearGradient id="f" x1="0%" x2="100%" y1="0%" y2="0%"><stop offset="0" stop-color="#f9eea9"/><stop offset="1" stop-color="#f5d855"/></linearGradient><linearGradient id="g"><stop offset="0" stop-color="#eec528" stop-opacity="0"/><stop offset="1" stop-color="#eec528"/></linearGradient><linearGradient id="h" x1="0%" x2="0%" xlink:href="#g" y1="0%" y2="100%"/><linearGradient id="i" x1="0%" x2="100%" xlink:href="#g" y1="0%" y2="100%"/><g transform="translate(8 8)"><rect fill="url(#a)" height="14" rx="1" width="14" x="-7" y="-7"/><path d="m-6-6h12v12h-12z" fill="url(#b)"/><path d="m-5-5h10v10h-10z" fill="#fff"/><path d="m-5-3h10v8h-10z" fill="url(#c)"/><path d="m-4-2h1v1h-1m0 1h1v1h-1m0 1h1v1h-1m0 1h1v1h-1m2-7h3v1h-3m0 1h3v1h-3m0 1h3v1h-3m0 1h3v1h-3m4-7h3v1h-3m0 1h3v1h-3m0 1h3v1h-3m0 1h3v1h-3" fill="#fff"/><path d="m-5-5h10v1h-10z" fill="url(#d)"/><g transform="matrix(.625 0 0 .625 3 3)"><path d="m-8 8v-6h2v-2h3l1-1a3 3 0 0 1 -1-3.5l3-3a3 3 0 0 1 3.5 0l3 3a3 3 0 0 1 1 3.5l-3 3a3 3 0 0 1 -3 0l-6 6z" fill="url(#e)"/><path d="m-7 7v-4h2v-2h2.5l3-3 1.8 1.8-7.2 7.2z" fill="url(#f)"/><path d="m-1.5-2a3 3 0 0 1 -1-3.5l3-3a3 3 0 0 1 3.5 0l3.3 3.3a3 3 0 0 1 1 3.5l-3 3a3 3 0 0 1 -3 0z" fill="url(#f)" transform="scale(.8)"/><path d="m-.4-3.2a3 3 0 0 1 -1-3.5l3-3a3 3 0 0 1 3.5 0l3.3 3.3a3 3 0 0 1 1 3.5l-3 3a3 3 0 0 1 -3 0z" fill="url(#i)" transform="scale(.6)"/><path d="m-6 6v-1l6-6 1 1-6 6z" fill="url(#h)"/><path d="m0 0h2v1h-2z" fill="url(#e)" transform="matrix(.70710678 .70710678 -.70710678 .70710678 3 -5)"/></g></g></svg>