<svg height="16" width="16" xmlns="http://www.w3.org/2000/svg" xmlns:xlink="http://www.w3.org/1999/xlink"><linearGradient id="a" x1="0%" x2="100%" y1="0%" y2="100%"><stop offset="0" stop-color="#d5d5d5"/><stop offset=".8" stop-color="#aaa"/></linearGradient><linearGradient id="b" x1="0%" x2="100%" y1="0%" y2="100%"><stop offset="0" stop-color="#83ccff"/><stop offset="1" stop-color="#8dccf7"/></linearGradient><linearGradient id="c" x1="0%" x2="100%" y1="0%" y2="100%"><stop offset="0" stop-color="#acddff"/><stop offset="1" stop-color="#9cd6ff"/></linearGradient><linearGradient id="d" x1="0%" x2="100%" y1="0%" y2="100%"><stop offset="0" stop-color="#6e9458"/><stop offset="1" stop-color="#376b19"/></linearGradient><linearGradient id="e" x1="0%" x2="100%" y1="0%" y2="100%"><stop offset="0" stop-color="#b1d390"/><stop offset="1" stop-color="#8fbc67"/></linearGradient><g transform="translate(8 8)"><path d="m-5-5h1v1h-1v-1l-3-3v7l9 9 7-7-9-9h-7z" fill="url(#a)"/><path d="m-6-4.5a1.5 1.5 0 0 1 3 0 1.5 1.5 0 0 1 -3 0l-1-2.5v6l8 8 6-6-8-8h-6z" fill="#fff"/><path d="m-2.5-2.5 1.5-1.5 5.5 5.5-3 3-5.5-5.5" fill="url(#b)"/><path d="m-2-2 1-1 4 4-2 2-4-4" fill="url(#c)"/><g transform="translate(4.5 4.5)"><circle fill="url(#d)" r="3.5"/><circle fill="url(#e)" r="2.5"/><path d="m-.5-.5v-1h1v1h1v1h-1v1h-1v-1h-1v-1z" fill="#fff"/></g></g></svg>