<svg height="16" width="16" xmlns="http://www.w3.org/2000/svg" xmlns:xlink="http://www.w3.org/1999/xlink"><linearGradient id="a" x1="0%" x2="100%" y1="0%" y2="100%"><stop offset="0" stop-color="#d5d5d5"/><stop offset=".8" stop-color="#aaa"/></linearGradient><linearGradient id="b" x1="0%" x2="100%" y1="0%" y2="100%"><stop offset="0" stop-color="#83ccff"/><stop offset="1" stop-color="#8dccf7"/></linearGradient><linearGradient id="c" x1="0%" x2="100%" y1="0%" y2="100%"><stop offset="0" stop-color="#acddff"/><stop offset="1" stop-color="#9cd6ff"/></linearGradient><linearGradient id="d" x1="0%" x2="100%" y1="0%" y2="0%"><stop offset="0" stop-color="#f7e1c9"/><stop offset="1" stop-color="#f4cfa5"/></linearGradient><linearGradient id="e" x1="100%" x2="0%" y1="0%" y2="100%"><stop offset="0" stop-color="#ca9350"/><stop offset=".2" stop-color="#ca9350" stop-opacity=".5"/><stop offset=".3" stop-color="#ca9350" stop-opacity="0"/><stop offset=".55" stop-color="#936d1e" stop-opacity="0"/><stop offset=".65" stop-color="#936d1e" stop-opacity=".3"/><stop offset=".8" stop-color="#936d1e" stop-opacity=".9"/><stop offset=".92" stop-color="#936d1e"/><stop offset=".94" stop-color="#594212"/></linearGradient><linearGradient id="f" x1="37%" x2="63%" y1="37%" y2="63%"><stop offset="0" stop-color="#e4ba2f"/><stop offset="1" stop-color="#d98f3b"/></linearGradient><linearGradient id="g" x1="100%" x2="0%" y1="0%" y2="100%"><stop offset="0" stop-color="#fae7d1"/><stop offset=".75" stop-color="#fae7d1" stop-opacity=".9"/><stop offset="1" stop-color="#fae7d1" stop-opacity="0"/></linearGradient><linearGradient id="h" x1="37%" x2="63%" y1="37%" y2="63%"><stop offset="0" stop-color="#f8edc3"/><stop offset=".1" stop-color="#fcf4b3"/><stop offset=".45" stop-color="#f4d644"/><stop offset=".55" stop-color="#f4d644"/><stop offset=".9" stop-color="#fcf4b3"/><stop offset="1" stop-color="#faee8e"/></linearGradient><linearGradient id="i" x1="0%" x2="100%" y1="0%" y2="100%"><stop offset="0" stop-color="#e07500" stop-opacity="0"/><stop offset=".4" stop-color="#e07500" stop-opacity=".2"/><stop offset=".5" stop-color="#e07500" stop-opacity=".45"/><stop offset=".6" stop-color="#e07500" stop-opacity=".4"/><stop offset="1" stop-color="#e07500" stop-opacity="0"/></linearGradient><g transform="translate(8 8)"><path d="m-5-5h1v1h-1v-1l-3-3v7l9 9 7-7-9-9h-7z" fill="url(#a)"/><path d="m-6-4.5a1.5 1.5 0 0 1 3 0 1.5 1.5 0 0 1 -3 0l-1-2.5v6l8 8 6-6-8-8h-6z" fill="#fff"/><path d="m-2.5-2.5 1.5-1.5 5.5 5.5-3 3-5.5-5.5" fill="url(#b)"/><path d="m-2-2 1-1 4 4-2 2-4-4" fill="url(#c)"/><g transform="translate(2 2)"><path d="m2-5-8 8v3h3l8-8a2 1.25 45 0 0 -3-3" fill="url(#f)"/><path d="m2-5-8 8v3h3l8-8a2 1.25 45 0 0 -3-3" fill="url(#e)"/><ellipse fill="url(#d)" rx="1.25" ry=".75" transform="matrix(.70710678 .70710678 -.70710678 .70710678 3.5 -3.5)"/><path d="m-5 5h2l1-1a1.41.75 45 0 1 -2-2l-1 1z" fill="url(#g)"/><path d="m-5 5h2l1-1a1.41.75 45 0 1 -2-2l-1 1z" fill="url(#i)"/><path d="m2-4-5.5 5.5a1.41.75 45 0 0 2 2l5.5-5.5a1.41.75 45 0 1 -2-2" fill="url(#h)"/></g></g></svg>