<svg height="16" width="16" xmlns="http://www.w3.org/2000/svg" xmlns:xlink="http://www.w3.org/1999/xlink"><linearGradient id="a" x1="0%" x2="100%" y1="0%" y2="100%"><stop offset="0" stop-color="#9d9d9d"/><stop offset="1" stop-color="#848484"/></linearGradient><linearGradient id="b" x1="0%" x2="100%" y1="0%" y2="100%"><stop offset="0" stop-color="#e1e1e1"/><stop offset="1" stop-color="#c3c3c3"/></linearGradient><linearGradient id="c" x1="0%" x2="100%" y1="0%" y2="100%"><stop offset="0" stop-color="#85a7e1"/><stop offset="1" stop-color="#497dd1"/></linearGradient><linearGradient id="d" x1="0%" x2="100%" y1="0%" y2="100%"><stop offset="0" stop-color="#bacdee"/><stop offset="1" stop-color="#abc3ea"/></linearGradient><linearGradient id="e" x1="0%" x2="100%" y1="0%" y2="100%"><stop offset="0" stop-color="#96b4e5"/><stop offset="1" stop-color="#a5bfe9"/></linearGradient><g transform="translate(8 8)"><path d="m0 0 2 2-5.1 5.1a2.828 2.828 0 0 1 -4-4l5.1-5.1z" fill="url(#c)"/><path d="m-.7.7 1.4 1.4-4.4 4.4a1.98 1.98 0 0 1 -2.8-2.8l4.4-4.4 2 2" fill="url(#d)"/><path d="m-1.4 1.4.7.7-3.7 3.7a1 1 0 0 1 -1.4-1.4l3.7-3.7 2 2" fill="url(#e)"/><path d="m0 0-1.4-1.4 1-1c.4-.4.4-.4.4-.8v-1.8a3 3 0 0 1 3-3h2v2.5h-.25a.75.75 0 1 0 .75.75v-.25h2.5v2a3 3 0 0 1 -3 3h-1.8c-.4 0-.4 0-.8.4l-1 1" fill="url(#a)"/><path d="m0 0-.7-.7 1-1c.4-.4.4-.4.4-.8v-2.8a2 2 0 0 1 2-2h1.7v1a1.6 1.6 0 1 0 2 2h1v1.7a2 2 0 0 1 -2 2h-2.8c-.4 0-.4 0-.8.4l-1 1" fill="url(#b)"/></g></svg>