<svg xmlns:rdf="http://www.w3.org/1999/02/22-rdf-syntax-ns#" xmlns="http://www.w3.org/2000/svg" xml:space="preserve" viewBox="0 0 631 138" version="1.1" xmlns:cc="http://creativecommons.org/ns#" xmlns:dc="http://purl.org/dc/elements/1.1/"><g transform="matrix(1.25 0 0 -1.25 -.00020919 184.8)" fill="#fff"><path d="m77.613 134.34c0.023-0.008 0.039-0.035 0.039-0.063 0-0.01 0-0.018-0.0039-0.023-1.789-5.074-4.7597-10.848-7.705-15.227-6.1993-9.208-15.102-15.015-19.877-12.968-4.7754 2.046-3.6262 11.174 2.5801 20.385 1.3996 2.068 2.9305 3.962 4.5168 5.637 0.0129 0.013 0.0215 0.03 0.0215 0.049 0 0.038-0.0325 0.07-0.0727 0.07 0 0-0.0086 0-0.0086-0.002-1.9515-0.271-3.9277-0.654-5.9199-1.159-0.0156-0.002-0.0273-0.012-0.0391-0.024-20.949-25.7-29.867-59.066-28.639-88.836v-0.002c0-0.041-0.0324-0.0699-0.0715-0.0699 0 0-0.0164 0-0.0242 0.0027-12.353 4.979-21.379 16.911-22.317 32.017l-0.011922 0.176c-1.5586 26.882 19.868 54.412 47.863 61.502 10.85 2.748 21.1 2.024 29.67-1.464zm-24.414-15.28c-2.0078-4.235-1.2082-7.71 1.7863-7.764 2.9981-0.053 7.0575 3.335 9.0614 7.565 2.0117 4.237 1.2129 7.712-1.7852 7.767-2.9941 0.05-7.0539-3.337-9.0625-7.568" fill-rule="evenodd"/><path d="m69.693 61.851c-2.0363-1.4141-4.1594-2.7199-6.3535-3.8965-0.0078-0.0043-0.0203-0.0082-0.0203-0.0082-0.0473 0-0.079 0.0297-0.0833 0.068-0.41 6.453-1.797 12.706-4.204 17.908-6.409 13.887-17.608 14.956-25.012 2.384-4.53-7.694-6.593-18.72-6.032-29.302 0-0.0297 0.0199-0.0559 0.048-0.0637 7.8528-2.4586 16.899-2.7285 26.547-0.2937 27.96 7.1234 49.344 34.629 47.788 61.481-1.367 23.587-19.976 38.83-43.43 37.417 0 0-0.0316-0.008-0.0433-0.02-2.2786-2.309-4.4133-4.639-6.4172-6.99-0.0121-0.012-0.0164-0.028-0.0164-0.044 0-0.04 0.032-0.072 0.0679-0.072 0 0 0.0071 0 0.0118 0.002 13.741 1.74 24.759-1.053 31.946-6.781 0.0164-0.012 0.0293-0.032 0.0293-0.054 0-0.014-0.005-0.027-0.0129-0.038-24.767-34.92-21.701-54.815-14.791-71.615 0.0039-0.0082 0.0039-0.016 0.0039-0.027 0-0.0226-0.0109-0.0449-0.0269-0.0566" fill-rule="evenodd"/><path d="m300.93 37.498c-0.0437 0-0.0811 0.02781-0.0898 0.07031l-15.346 80.742c-0.006 0.0235 0.00063 0.0523 0.0156 0.0742 0.0188 0.0196 0.0434 0.0312 0.0684 0.0312h17.471c0.0437 0 0.0784-0.0298 0.0859-0.0723l6.0449-31.813c0.01-0.02975 0.0293-0.05023 0.0606-0.05273 0.03-0.0024 0.0544 0.01414 0.0644 0.04102l14.359 31.846c0.0125 0.0318 0.0495 0.0508 0.082 0.0508h18.912c0.0275 0 0.0587-0.0156 0.0762-0.043 0.009-0.0116 0.0137-0.0298 0.0137-0.0469 0-0.0126 0.00023-0.0254-0.01-0.0352l-14.84-32.214 24.34-27.414c0.015-0.01625 0.0215-0.03789 0.0215-0.05664 0-0.01375-0.00086-0.02531-0.006-0.03906-0.015-0.03125-0.0477-0.05078-0.084-0.05078h-19.162c-0.0225 0-0.0487 0.0093-0.0625 0.0293l-23.46 27.049c-0.0213 0.022-0.0563 0.0337-0.0801 0.01758-0.03-0.01225-0.0394-0.04252-0.0332-0.07227l9.1133-47.936c0.005-0.025-0.001-0.04922-0.0176-0.07422-0.0175-0.01875-0.0421-0.03125-0.0684-0.03125h-17.469zm-118.92 19.67c-7.0675 0-13.454 4.2739-18.076 11.945-0.06 0.09325-0.15805 0.12462-0.24805 0.07813-0.0888-0.04587-0.10414-0.13766-0.0879-0.20703l1.9727-10.385c0-0.02-0.0115-0.03969-0.0215-0.05469-0.02-0.0225-0.0446-0.0332-0.0684-0.0332l-15.473 0.0039c-0.04 0-0.0802 0.02906-0.084 0.07031l-11.49 60.418c-0.006 0.0279-0.00047 0.0567 0.0195 0.0762 0.015 0.02 0.0357 0.0312 0.0645 0.0312h17.59c0.045 0 0.0779-0.0304 0.0879-0.0723l4.2832-22.93c1.83-9.751 6.5371-21.543 18.6-21.543 1.1625 0 2.1483 0.14942 2.7695 0.2793 0.025 0.0024 0.0484 0.0011 0.0684-0.01367 0.02-0.01262 0.0302-0.03269 0.0352-0.05469l3.418-17.221c0.005-0.0225 0.00093-0.04586-0.008-0.06836-0.0162-0.02-0.0375-0.03141-0.0625-0.03516-0.94375-0.1725-2.2366-0.28516-3.2891-0.28516zm34.094 0.12109c-9.4762 0-17.957 3.4756-24.525 10.049-7.8438 7.8482-12.526 19.649-12.516 31.566 0.005 10.492 5.3436 20.973 17.152 20.973 7.1975 0 13.594-3.5303 16.857-9.0664 0.04-0.0679 0.11657-0.11278 0.19531-0.0977 0.10375 0.02 0.16844 0.10981 0.14844 0.22656l-1.4824 7.4883c-0.005 0.022 0.00024 0.0512 0.0215 0.0742 0.0137 0.0195 0.0396 0.0312 0.0684 0.0312h16.795c0.045 0 0.0777-0.0308 0.084-0.0723l6.3965-33.465c1.2325-6.544 1.6407-15.545-3.3106-21.539-3.3388-4.0499-8.6723-6.138-15.885-6.168zm159.81 0c-15.809 0-26.346 8.3595-26.346 20.73 0 6.2891 4.2093 11.624 12.623 15.832 5.3225 2.6025 7.4043 4.6645 7.4043 7.6152 0 3.2549-2.9587 5.2852-7.3574 5.2852-5.6762 0-13.412-2.6548-17.338-5.1172-0.025-0.0146-0.0544-0.0176-0.0781-0.008-0.03 0.0121-0.0516 0.0372-0.0566 0.0645l-2.5273 13.316c-0.005 0.0346 0.009 0.0683 0.0312 0.0879 3.6738 2.6562 11.007 4.5386 18.252 4.6582 9.4312 0.0727 17.266-2.5455 22.098-7.3398 3.6325-3.6031 5.4766-8.2261 5.4766-13.756 0-8.4702-7.1512-13.159-13.482-16.322-4.86-2.3678-7.1562-4.4458-7.1562-6.7617 0-3.2329 2.996-5.1621 7.6035-5.1621 5.49 0 10.599 1.7182 13.557 3.3281 0.0238 0.01512 0.0551 0.01458 0.0801 0.002 0.025-0.01225 0.0445-0.03317 0.0508-0.06055l2.5176-13.236c0.0112-0.03812-0.009-0.07417-0.0391-0.0918-2.6088-1.4739-8.0062-3.0645-15.312-3.0645zm56.842 0c-6.73 0.000001-13.131 3.2837-17.662 9.0977l-0.0742 0.09766c-0.065 0.08988-0.16164 0.11861-0.24414 0.08398-0.09-0.03813-0.0995-0.14355-0.082-0.23242l1.54-8.087c0.006-0.0225 0.00062-0.05047-0.0156-0.07422-0.0163-0.01875-0.0402-0.03125-0.0664-0.03125l-15.471-0.01172c-0.045 0.000001-0.0798 0.03547-0.0898 0.07422l-15.098 79.422c-0.005 0.0264-0.00008 0.0542 0.0137 0.0742 0.0212 0.02 0.0446 0.0313 0.0684 0.0313h17.592c0.0412 0 0.0809-0.0323 0.0859-0.0723l4.2949-22.689c0-0.0126 0.014-0.0122 0.0215-0.002 3.22 4.7959 13.484 7.4799 24.973 1.3574 12.608-6.7221 19.605-21.662 19.605-36.23 0-13.893-7.6267-22.809-19.387-22.809zm57.613 0c-9.4788 0-17.956 3.4756-24.527 10.049-7.8462 7.8482-12.526 19.649-12.514 31.566 0.005 10.492 5.3386 20.973 17.152 20.973 7.19 0 13.591-3.5303 16.857-9.0664 0.04-0.0679 0.10766-0.11278 0.19141-0.0977 0.105 0.02 0.16593 0.10981 0.14843 0.22656l-1.4785 7.4883c-0.005 0.022 0.001 0.0512 0.0215 0.0742 0.0137 0.0195 0.0412 0.0312 0.0625 0.0312h16.799c0.0413 0 0.0809-0.0308 0.0859-0.0723l6.3945-33.465c1.2325-6.544 1.6414-15.545-3.3086-21.539-3.3462-4.0499-8.6735-6.138-15.885-6.168zm105.06 0.0039c-9.995 0-19.082 4.1763-25.582 11.768-5.9188 6.9161-9.3164 16.193-9.3164 25.447 0 16.056 9.4462 25.248 25.982 25.248 3.8812 0 13.806-0.46681 22.27-4.7734 0.0225-0.0123 0.0392-0.0348 0.043-0.0625l2.8008-14.725c0.005-0.0323-0.006-0.0664-0.0371-0.0859-0.0288-0.0195-0.0625-0.0239-0.0937-0.006-6.945 4.0054-13.338 5.7949-20.709 5.7949-5.0425 0-9.116-1.5826-11.416-4.4902-1.1288-1.5825-1.7302-4.0273-1.7852-5.7617l-0.01-0.18945c0.00001-0.0029 0.00016-0.0019 0.004-0.0039 0 0-0.00039-0.0029 0.006 0l0.18945 0.002c16.829 0.395 27.833-2.2192 33.686-7.9277 3.1962-3.1138 4.8164-7.2114 4.8164-12.193 0-10.775-8.3439-18.041-20.848-18.041zm-318.16 0.11914c-22.27 0-39.049 16.263-39.049 37.828 0 14.895 9.8948 24.514 25.246 24.514 6.5462 0 12.908-1.1958 17.018-3.1836 0.0237-0.0123 0.0438-0.0391 0.0488-0.0625l2.7734-14.645c0.005-0.0316-0.002-0.0674-0.0332-0.0879-0.025-0.019-0.06-0.0216-0.0937-0.008-5.4188 2.6699-9.6844 3.7656-14.703 3.7656-5.6162 0-11.639-3.23-11.639-12.246 0-10.626 7.5388-21.65 20.188-21.65 3.7825 0 6.9598 0.74069 9.6973 2.2734 0.0238 0.01462 0.0533 0.0142 0.082 0.002 0.0263-0.01025 0.042-0.03562 0.0508-0.0625l2.7129-14.254c0.0113-0.041-0.0115-0.08391-0.0527-0.09766-3.18-1.3038-7.7586-2.0859-12.246-2.0859zm274.27 0c-22.27 0-39.051 16.263-39.051 37.828 0 14.895 9.8956 24.514 25.248 24.514 6.5475 0 12.906-1.1958 17.018-3.1836 0.0238-0.0123 0.0399-0.0391 0.0449-0.0625l2.7793-14.645c0.004-0.0316-0.0134-0.0674-0.0371-0.0879-0.0237-0.019-0.065-0.0216-0.0937-0.008-5.4175 2.6699-9.6837 3.7656-14.701 3.7656-5.6175 0-11.639-3.23-11.639-12.246 0-10.626 7.5375-21.65 20.188-21.65 3.7825 0 6.9541 0.74069 9.6953 2.2734 0.0275 0.01462 0.0576 0.0142 0.0801 0.002 0.03-0.01025 0.0433-0.03562 0.0508-0.0625l2.7168-14.254c0.0125-0.041-0.0154-0.08391-0.0566-0.09766-3.1812-1.3038-7.7572-2.0859-12.242-2.0859zm41.691 12.879c3.8288 0 6.3867 1.9512 6.3867 5.043 0 1.4508-0.47632 2.6372-1.4551 3.6113-2.5412 2.5161-8.3388 3.5727-18.625 3.5059h-0.22266s-0.00086-0.0035-0.006-0.0059c-0.005-0.0049 0-0.01172 0-0.01172l0.0527-0.21094c1.4162-5.793 6.2866-11.932 13.869-11.932zm-380.63 0.48047c3.9462 0 6.1474 2.2803 6.3574 6.5078 0.0538 1.2325-0.13937 2.9975-0.45312 4.998-0.3125 2-0.75344 4.251-1.1797 6.4629-1.9188 9.8999-7.483 16.662-13.949 16.662-4.0412 0-6.3672-3.9049-6.3672-10.172-0.004-7.1401 3.5777-16.107 8.3477-20.883 2.3275-2.3261 4.8291-3.5762 7.2441-3.5762zm274.26 0c3.945 0 6.148 2.2803 6.3555 6.5078 0.0575 1.2325-0.13672 2.9975-0.44922 4.998-0.3125 2-0.74898 4.251-1.1777 6.4629-1.92 9.8999-7.492 16.662-13.957 16.662-4.035 0-6.3602-3.9049-6.3652-10.172-0.005-7.1401 3.5848-16.107 8.3535-20.883 2.3225-2.3261 4.8265-3.5762 7.2402-3.5762zm-60.379 0.98633c6.51 0 7.1777 6.8608 7.1777 9.6836 0 11.698-6.8538 24.947-16.188 24.947-8.1762 0-6.1065-11.742-5.3652-15.654 2.1687-11.436 7.755-18.977 14.375-18.977z" transform="matrix(0.8 0 0 -0.8 -.0000062107 147.63)"/><path d="m623.75 104.44c-4.275 0-8.052 3.4683-8.4394 7.748-0.385 4.2734 2.7726 7.7402 7.0488 7.7402 4.2788 0 8.0539-3.4669 8.4414-7.7402 0.38124-4.2798-2.7708-7.748-7.0508-7.748zm0 1.0547c3.6525 0 6.3256 2.9307 5.998 6.5977-0.335 3.7329-3.6637 6.7812-7.3887 6.7812-3.655 0-6.3279-2.9288-5.9941-6.5918 0.33375-3.7408 3.6623-6.7871 7.3848-6.7871zm-2.3516 2.0918c-0.0213 0-0.0348 0.0143-0.041 0.0312l-0.51563 2.7891-0.52344 2.748-0.006 0.043-0.6582 3.5039c0 0.0122 0.005 0.024 0.01 0.0313 0.004 0.01 0.0193 0.0137 0.0293 0.0137h1.0645s0.0145-0.0122 0.0195-0.0293l0.64844-3.4746h0.88671l0.7793-0.0176 1.1875 3.498c0.005 0.0146 0.0352 0.0234 0.0352 0.0234h1.2754s0.009-0.005 0.0176-0.0176c0.002-0.005 0.002-0.0118 0.002-0.0195v-0.0117l-1.2441-3.6719c1.4212-0.38925 2.1931-1.3832 2.4219-2.6055 0.035-0.18163 0.0527-0.36038 0.0527-0.53126 0-0.99412-0.56117-1.7749-1.5449-2.1016-0.26375-0.0928-0.52188-0.14492-0.85938-0.16992-0.255-0.0205-0.58312-0.0239-1.0781-0.0312h-0.0215-1.9375zm0.87891 1.123h0.85547 0.0957c0.42625 0.0103 0.70594 0.0126 0.92969 0.0273 0.2475 0.0195 0.4107 0.0489 0.5957 0.11524 0.715 0.229 1.0516 0.81301 0.91406 1.5566-0.14125 0.75-0.70601 1.3369-1.5098 1.5703-0.20375 0.063-0.39508 0.0962-0.64258 0.11328-0.2275 0.0151-0.51586 0.02-0.94336 0.0273h-0.93164l0.32031-1.6992 0.31641-1.7109z" transform="matrix(0.8 0 0 -0.8 -.0000062107 147.63)"/></g></svg>
